<svg id="Layer_1" data-name="Layer 1" xmlns="http://www.w3.org/2000/svg" viewBox="0 0 200 200"><defs><style>.cls-1,.cls-5{fill:#502600;}.cls-1,.cls-2{stroke:#231f20;stroke-miterlimit:10;stroke-width:2px;}.cls-2{fill:#fff;}.cls-3{fill:#9c582c;}.cls-4{fill:#cc7e4c;}.cls-6{fill:#f9f9f7;}.cls-7{fill:#0e0d0f;}.cls-8{fill:#faf9f9;}.cls-9{fill:#0d0e0e;}</style></defs><title>bear</title><path class="cls-1" d="M192.42,71.75A38.43,38.43,0,0,0,154,33.31h-1.2A38.43,38.43,0,0,0,131.17,40a74.88,74.88,0,0,0-30.68-6.69l-.6,0-.6,0A74.88,74.88,0,0,0,68.58,40,38.43,38.43,0,0,0,47,33.31H45.8a38.42,38.42,0,0,0-21.24,70.44q-.14,2.22-.16,4.45a74.89,74.89,0,0,0,74.89,74.89l.6,0,.6,0a74.89,74.89,0,0,0,74.89-74.89q0-2.21-.22-4.41A38.43,38.43,0,0,0,192.42,71.75Z"/><path class="cls-2" d="M100.49,188.09h-1.2A80,80,0,0,1,19.4,108.2c0-.65,0-1.31,0-2A43.42,43.42,0,0,1,45.8,28.31H47a43.24,43.24,0,0,1,22,6.05,79.26,79.26,0,0,1,30.25-6.05h1.2a79.29,79.29,0,0,1,30.25,6,43.23,43.23,0,0,1,22.05-6H154a43.48,43.48,0,0,1,43.43,43.44h0a43.31,43.31,0,0,1-17.1,34.51q0,.92.06,1.84v.1A80,80,0,0,1,100.49,188.09Zm-.62-10h.63a70,70,0,0,0,69.89-69.83c0-1.36-.1-2.72-.21-4.07l-.23-2.94,2.46-1.63A33.41,33.41,0,0,0,154,38.31h-1.2A33.3,33.3,0,0,0,134,44.13l-2.32,1.58-2.56-1.16a69.43,69.43,0,0,0-28.63-6.24H99.27a69.39,69.39,0,0,0-28.63,6.25l-2.56,1.16-2.32-1.59A33.3,33.3,0,0,0,47,38.31h-1.2A33.42,33.42,0,0,0,27.32,99.58l2.42,1.6-.19,2.89c-.09,1.38-.14,2.78-.15,4.15a70,70,0,0,0,69.89,69.86h.58Z"/><g id="g4319"><path id="path3349" class="cls-3" d="M152.78,33.31A38.41,38.41,0,0,1,174,103.79q.18,2.2.22,4.41a74.89,74.89,0,0,1-74.89,74.89h0A74.89,74.89,0,0,1,24.4,108.2h0q0-2.23.16-4.45A38.42,38.42,0,0,1,45.8,33.31h0a38.43,38.43,0,0,1,22.05,7,74,74,0,0,1,62.85,0A38.43,38.43,0,0,1,152.78,33.31Z"/><path id="path3351" class="cls-4" d="M154.49,40.7a30.37,30.37,0,0,1,16.74,55.71A59.2,59.2,0,0,0,137,46.23,30.38,30.38,0,0,1,154.49,40.7Z"/><path id="path3353" class="cls-4" d="M43.79,40.7A30.37,30.37,0,0,0,27.06,96.41,59.2,59.2,0,0,1,61.25,46.23,30.38,30.38,0,0,0,43.79,40.7Z"/><path id="path4295" class="cls-5" d="M99.29,135,88.12,124.51,77,117.63a45.82,45.82,0,0,1,44.67,0l-11.17,6.88Z"/></g><g id="g4229"><path id="path4231" class="cls-3" d="M154,33.31a38.41,38.41,0,0,1,21.18,70.48q.18,2.2.22,4.41a74.89,74.89,0,0,1-74.89,74.89h0A74.89,74.89,0,0,1,25.6,108.2h0q0-2.23.16-4.45A38.42,38.42,0,0,1,47,33.31h0a38.43,38.43,0,0,1,22.05,7,74,74,0,0,1,62.85,0A38.43,38.43,0,0,1,154,33.31Z"/><path id="path4233" class="cls-4" d="M155.69,40.7a30.37,30.37,0,0,1,16.74,55.71,59.2,59.2,0,0,0-34.19-50.18A30.38,30.38,0,0,1,155.69,40.7Z"/><path id="path4235" class="cls-4" d="M45,40.7A30.37,30.37,0,0,0,28.26,96.41,59.2,59.2,0,0,1,62.45,46.23,30.38,30.38,0,0,0,45,40.7Z"/><path id="path4237" class="cls-5" d="M100.49,135,89.32,124.51l-11.17-6.88a45.82,45.82,0,0,1,44.67,0l-11.17,6.88Z"/></g><path class="cls-6" d="M126.89,100.48c-8.76,0-15.54-7-15.56-16.14a15.42,15.42,0,0,1,15.37-15.59c8.61-.1,16.24,6.85,15.8,15.18C142,94.23,136.07,100.18,126.89,100.48Z"/><path class="cls-7" d="M126.48,90.05c-3-.64-5.16-2.49-4.85-6,.27-3.13,2.15-5,5.53-4.87,3.71.18,5.24,2.41,5.09,5.87S130,89.84,126.48,90.05Z"/><path class="cls-8" d="M58.46,84.43c.08-8.84,6.71-15.51,15.37-15.45,9.05.06,15.94,7,15.77,15.79s-7.3,16-15.83,15.9C65.08,100.57,58.38,93.47,58.46,84.43Z"/><path class="cls-9" d="M74.34,90.29c-3.37-.1-5.42-1.84-5.63-5-.23-3.41,1.56-5.82,5.15-5.92s5.49,1.92,5.5,5.55C79.37,88.29,77.46,89.91,74.34,90.29Z"/><path class="cls-5" d="M98,132.26l3.13.13c0,.76,0,1.52,0,2.28.08,5.19-1.33,11.37,6.23,12.52,7,1.07,11.36-2.86,13.94-9.09.54-1.31,1.18-2.57,2.07-4.51,1.16,10.25-8.49,18.75-17.21,15.75-4.2-1.44-7.41-2.48-12.27-.41-9.31,4-20.54-4.15-19.83-15.12,1.48,5.7,3.57,9,7.51,10.93s8.08,4,12.27,2C100.08,143.59,99.69,138,98,132.26Z"/></svg>