<?xml version="1.0" encoding="utf-8"?>
<!-- Generator: Adobe Illustrator 20.1.0, SVG Export Plug-In . SVG Version: 6.00 Build 0)  -->
<svg version="1.1" id="Layer_1" xmlns="http://www.w3.org/2000/svg" xmlns:xlink="http://www.w3.org/1999/xlink" x="0px" y="0px"
	 viewBox="0 0 372.3 372.3" style="enable-background:new 0 0 372.3 372.3;" xml:space="preserve">
<g id="XMLID_523_">
	<polygon id="XMLID_524_" class="ctrl-icon" points="257.6,232.1 140.1,114.7 133.1,150.1 222.2,239.2 	"/>
	<path id="XMLID_525_" class="ctrl-icon" d="M209.5,56.8c-5.9-5.9-15.4-5.9-21.2,0l-31.8,31.8l127.3,127.3l31.8-31.8
		c2.8-2.8,4.4-6.6,4.4-10.6c0-4-1.6-7.8-4.4-10.6L209.5,56.8z"/>
	<path id="XMLID_526_" class="ctrl-icon" d="M64.5,372.3c3.8,0,7.7-1.5,10.6-4.4l116.7-116.7l-70.7-70.7l-28.9,28.9
		c-5.6-2.7-12.4-1.7-17.1,2.9l-28.3,28.3c-4.6,4.6-5.6,11.5-2.9,17.1L4.4,297.2c-5.9,5.9-5.9,15.4,0,21.2l49.5,49.5
		C56.8,370.8,60.7,372.3,64.5,372.3z"/>
	<path id="XMLID_527_" class="ctrl-icon" d="M357.3,104.8h-21.1c-8.3,0-15,6.7-15,15c0,8.3,6.7,15,15,15h21.1c8.3,0,15-6.7,15-15
		C372.3,111.5,365.6,104.8,357.3,104.8z"/>
	<path id="XMLID_530_" class="ctrl-icon" d="M237.5,15l0,21.1c0,8.3,6.7,15,15,15h0c8.3,0,15-6.7,15-15l0-21.1c0-8.3-6.7-15-15-15
		C244.2,0,237.5,6.7,237.5,15z"/>
	<path id="XMLID_531_" class="ctrl-icon" d="M337.2,56.3c5.9-5.9,5.9-15.4,0-21.2c-5.9-5.9-15.4-5.9-21.2,0L301,50
		c-5.9,5.9-5.9,15.4,0,21.2c2.9,2.9,6.8,4.4,10.6,4.4s7.7-1.5,10.6-4.4L337.2,56.3z"/>
</g>
</svg>
