<?xml version="1.0" encoding="iso-8859-1"?>
<svg version="1.1" id="Layer_1" xmlns="http://www.w3.org/2000/svg" xmlns:xlink="http://www.w3.org/1999/xlink" x="0px" y="0px"
	 viewBox="0 0 372.278 372.278" style="enable-background:new 0 0 372.278 372.278;" xml:space="preserve">
<g id="XMLID_523_">
	<polygon id="XMLID_524_" points="257.557,232.14 140.137,114.721 133.067,150.075 222.2,239.21 	"/>
	<path id="XMLID_525_" d="M209.454,56.758c-5.856-5.857-15.355-5.857-21.212,0l-31.82,31.819L283.7,215.857l31.821-31.821
		c2.813-2.813,4.393-6.629,4.393-10.606c0-3.978-1.58-7.794-4.393-10.606L209.454,56.758z"/>
	<path id="XMLID_526_" d="M64.496,372.276c3.84,0,7.678-1.464,10.605-4.394l116.674-116.672l-70.709-70.71l-28.9,28.9
		c-5.574-2.66-12.445-1.698-17.061,2.919L46.82,240.606c-4.617,4.616-5.58,11.487-2.92,17.062L4.393,297.174
		c-5.857,5.857-5.857,15.355,0.002,21.213l49.496,49.496C56.819,370.813,60.658,372.276,64.496,372.276z"/>
	<path id="XMLID_527_" d="M357.278,104.816h-21.125c-8.283-0.001-15,6.715-15,15c0,8.284,6.717,15,15,15h21.125
		c8.285,0,15-6.716,15-15.001C372.278,111.531,365.562,104.816,357.278,104.816z"/>
	<path id="XMLID_530_" d="M237.463,15l-0.002,21.123c-0.002,8.285,6.714,15,14.999,15.002h0.001c8.283,0,15-6.716,15-14.998
		l0.002-21.125c0.002-8.283-6.713-15-15-15.001C244.18,0.001,237.465,6.716,237.463,15z"/>
	<path id="XMLID_531_" d="M337.186,56.306c5.856-5.857,5.857-15.354,0-21.212c-5.857-5.857-15.355-5.859-21.214,0l-14.938,14.936
		c-5.856,5.858-5.858,15.356-0.001,21.214c2.93,2.929,6.77,4.394,10.608,4.394c3.838,0,7.678-1.465,10.606-4.393L337.186,56.306z"/>
</g>
</svg>
