<svg id="Layer_1" data-name="Layer 1" xmlns="http://www.w3.org/2000/svg" viewBox="0 0 200 200"><defs><style>.cls-1,.cls-3{fill:#47b31e;}.cls-1,.cls-2,.cls-8{stroke:#231f20;}.cls-1,.cls-2{stroke-width:2px;}.cls-2{fill:#fff;}.cls-4{fill:#f9f9f7;}.cls-5{fill:#faf9f9;}.cls-6{fill:#0e0d0f;}.cls-7{fill:#0d0e0e;}.cls-8{fill:none;stroke-linecap:round;stroke-miterlimit:10;stroke-width:3px;}</style></defs><title>frog</title><path class="cls-1" d="M175.75,87.59a43.86,43.86,0,0,0,6.79-22,34.83,34.83,0,0,0-9.79-26,38.64,38.64,0,0,0-27.92-12h-.44a37.42,37.42,0,0,0-34.17,22.69c-3.41-.32-6.87-.51-10.39-.51a109.11,109.11,0,0,0-13.39.83A36.86,36.86,0,0,0,79,39.48,38.14,38.14,0,0,0,51.64,28h-.26c-20.7,0-37.06,16.41-37.24,37.37a39,39,0,0,0,8.37,24.77A49.75,49.75,0,0,0,17,112.76c0,34.77,37.08,63,82.83,63s82.83-28.19,82.83-63A50.22,50.22,0,0,0,175.75,87.59Z"/><path class="cls-2" d="M99.83,180.72c-48.43,0-87.83-30.49-87.83-68a54.16,54.16,0,0,1,4.72-22A44.51,44.51,0,0,1,9.14,65.37C9.35,41.63,27.9,23,51.38,23h.28A43.11,43.11,0,0,1,82.56,36a41.78,41.78,0,0,1,6.84,9.3c3.49-.32,7-.48,10.43-.48,2.39,0,4.86.08,7.37.25a42.43,42.43,0,0,1,37.13-22.43h.46a43.68,43.68,0,0,1,31.58,13.56,39.78,39.78,0,0,1,11.15,29.68,49.57,49.57,0,0,1-6,21.86,54.48,54.48,0,0,1,6.15,25C187.66,150.24,148.26,180.72,99.83,180.72ZM51.37,33C33.46,33,19.3,47.28,19.14,65.45a33.77,33.77,0,0,0,7.28,21.61l2,2.51L27,92.43a44.71,44.71,0,0,0-5,20.33c0,32,34.91,58,77.83,58s77.83-26,77.83-58a45.1,45.1,0,0,0-6.24-22.69l-1.53-2.67,1.69-2.57a38.7,38.7,0,0,0,6-19.5,29.88,29.88,0,0,0-8.42-22.27,33.63,33.63,0,0,0-24.29-10.45h-.4a32.42,32.42,0,0,0-29.61,19.66l-1.44,3.36-3.63-.35c-3.45-.33-6.69-.49-9.91-.49a104.54,104.54,0,0,0-12.78.79l-3.72.46-1.48-3.44A31.8,31.8,0,0,0,75.39,43,33.18,33.18,0,0,0,51.61,33Z"/><ellipse class="cls-3" cx="99.83" cy="112.76" rx="82.83" ry="62.96"/><path class="cls-4" d="M144.78,95.8c-16.57,0-29.58-13.38-29.61-30.45a29.39,29.39,0,0,1,29.31-29.72h.34a30.61,30.61,0,0,1,22.12,9.51,26.9,26.9,0,0,1,7.6,20c-1,18.32-12.26,30-29.46,30.62Z"/><path class="cls-3" d="M144.82,43.62c11.88,0,22.35,9.62,21.74,21.13-.76,14.35-9,22.62-21.73,23h0c-12.17,0-21.59-9.79-21.61-22.47a21.47,21.47,0,0,1,21.4-21.7h.25m0-16h-.44a37.46,37.46,0,0,0-37.22,37.73c0,21.55,16.57,38.44,37.61,38.44h.57c21.39-.71,36-15.7,37.18-38.19a34.83,34.83,0,0,0-9.79-26,38.64,38.64,0,0,0-27.92-12Z"/><path class="cls-5" d="M51.36,96.15C34.83,96,22,82.49,22.14,65.48,22.29,49,35.13,36,51.38,36h.21a30.2,30.2,0,0,1,21.65,9,29.18,29.18,0,0,1,8.24,21.12c-.32,16.53-13.69,30-29.8,30Z"/><path class="cls-3" d="M51.38,44h.15c12.6.08,22.19,9.68,22,22s-10,22.13-21.8,22.13h-.23C39.36,88,30,78.12,30.14,65.55,30.25,53.29,39.4,44,51.38,44m0-16h0c-20.7,0-37.06,16.41-37.24,37.37C14,86.9,30.27,103.91,51.28,104.15h.41c20.43,0,37.39-17,37.8-37.82A37.12,37.12,0,0,0,79,39.48,38.14,38.14,0,0,0,51.64,28Z"/><path class="cls-6" d="M147,70.1c-4.21-.89-7.18-3.46-6.76-8.35.38-4.35,3-7,7.69-6.78,5.16.24,7.29,3.35,7.09,8.18S151.84,69.81,147,70.1Z"/><path class="cls-7" d="M49.33,70.35c-4.69-.14-7.54-2.57-7.83-7-.32-4.74,2.17-8.1,7.16-8.24s7.64,2.67,7.65,7.72C56.32,67.57,53.67,69.81,49.33,70.35Z"/><path class="cls-8" d="M65.08,129.22s15.45,11.93,33.43,11.93,33.68-11.93,33.68-11.93"/></svg>