<svg id="Layer_1" data-name="Layer 1" xmlns="http://www.w3.org/2000/svg" viewBox="0 0 200 200"><defs><style>.cls-1{fill:#fff;stroke:#231f20;stroke-width:2px;}.cls-1,.cls-26{stroke-miterlimit:10;}.cls-2{fill:#fed9bf;}.cls-3{fill:#fdda04;}.cls-4{fill:#c27223;}.cls-5{fill:#c27224;}.cls-6{fill:#f4e874;}.cls-7{fill:#f6e477;}.cls-8{fill:#f1e86b;}.cls-9{fill:#faf2ba;}.cls-10{fill:#f5e66d;}.cls-11{fill:#eeea6b;}.cls-12{fill:#f3e351;}.cls-13{fill:#f5ea65;}.cls-14{fill:#f7e45b;}.cls-15{fill:#f4e37d;}.cls-16{fill:#c06f2c;}.cls-17{fill:#c1712c;}.cls-18{fill:#f9bd1a;}.cls-19{fill:#f7bd1c;}.cls-20{fill:#241c08;}.cls-21{fill:#1d150b;}.cls-22{fill:#f9f9f7;}.cls-23{fill:#0e0d0f;}.cls-24{fill:#faf9f9;}.cls-25{fill:#0d0e0e;}.cls-26{fill:none;stroke:#641f12;stroke-linecap:round;stroke-width:3px;}</style></defs><title>giraffe</title><path class="cls-1" d="M98.85,195.5c-17.22,0-34.33-4.2-46.88-11.78-16.82-10.16-25.56-28.23-22.81-47.15.61-4.22,2.56-7.55,4.27-10.48l.75-1.29c-5.89-19.63-3.51-37.58,7.08-53.5a18,18,0,0,1-8.74-2.36c-6.65.11-11.13-2.51-13.43-7.73a55.81,55.81,0,0,1-10.58-16c-2-1.91-5.3-5.91-2.84-11.35s7.6-4.67,9.31-4.46a5.68,5.68,0,0,0,.81.08,45.37,45.37,0,0,1,5.64-.05l1.82,0,.53-.05c4.32-3.57,9.45-3,12-2.69l9.4,0a9.43,9.43,0,0,0,1.44-.14c5.28-.73,8,.95,9.54,2.69a26.35,26.35,0,0,1,8.35,3.89,35.17,35.17,0,0,0,3.17,1.85,11.23,11.23,0,0,1,8.45,7.71l.4.58a19.14,19.14,0,0,0,1.49,2,1.35,1.35,0,0,0,.31.27,2,2,0,0,0,.65-.16q-.14-.25-.27-.53c-1.91-4-3.78-8.1-5.59-12.06L71.38,29c-3.62-3.64-7.81-10.27-1.66-18.16C74.94,4.17,87,2,94,6.41c5.73,3.61,7.75,9.48,5.57,15.71,1.46,3.79,1.59,7.59,1.71,11a29.12,29.12,0,0,0,.78,7c.17.57.31,1.13.44,1.69.09.35.19.78.29,1.13h0c2.38-.07,2.59-.23,3.2-2.43a67.55,67.55,0,0,1,4.82-11.67c.52-1.06,1-2.08,1.49-3.09-.69-6.1,2.9-10.56,5.1-13.15,3.91-6,10.36-8.06,17.77-5.66,7.65,2.47,12.48,7.89,13.62,15.25a11.16,11.16,0,0,1-6.59,12.32,18.64,18.64,0,0,1,2.1.12c15.52-1.63,28.28,2.1,39,11.4a12.72,12.72,0,0,0,3.21,1.54c.85.33,1.73.67,2.63,1.09l.83.39.55.57c.15.11.33.21.5.31a8.16,8.16,0,0,1,4.2,5,7.76,7.76,0,0,1-1.19,6l-.29.47-.39.4c-4.42,4.53-8.5,8.55-13.46,11.82a7.28,7.28,0,0,1-1.43.9c-.94.57-1.81,1.06-2.64,1.49-3.63,4.13-8.51,3.67-11.23,3.4-.62-.06-1.21-.12-1.71-.13l-4.15.06a8.5,8.5,0,0,1-2.68.41h0a81.54,81.54,0,0,1,5.6,21,35.8,35.8,0,0,1-2.62,19.89,46.47,46.47,0,0,0,2.77,5.18A55.26,55.26,0,0,1,165.1,132c8.83,20.4-2,34.66-12.39,44.79C139.44,189.7,119.07,195.5,98.85,195.5ZM35.64,58.71,37.21,60c1.41,1.18,3.35,1.28,6.65,1.35a33.59,33.59,0,0,1,8.14.88l7.76,2-5.25,6.07C41,86,37.68,103.44,44.33,123.76l.64,2L44,127.56c-.63,1.26-1.32,2.44-2,3.57-1.43,2.46-2.67,4.58-3,6.88-2.16,14.87,4.77,29.11,18.09,37.15,23.66,14.29,67.52,15,88.59-5.55,12.53-12.21,15.39-21.65,10.19-33.66a47.14,47.14,0,0,0-2.7-5,41.13,41.13,0,0,1-4.35-9.08l-.59-1.94.93-1.8a26,26,0,0,0,2.57-16A68.91,68.91,0,0,0,145,79.6L144.13,78l.41-1.78c.83-3.61,3.33-7.67,10.55-6.53l.64.1.55-.34,6.67-.1H163c.92,0,1.81.1,2.59.17,2.57.25,2.65.13,2.92-.26l.77-1.12,1.23-.58a30.54,30.54,0,0,0,3-1.68l.66-.41a59.57,59.57,0,0,0,9.64-8.18l-.9-.35a19.73,19.73,0,0,1-6.17-3.31c-8.64-7.49-19.08-10.42-31.94-9l-.65.07-.65-.09c-2.5-.37-3.29.23-3.89.87l-1.3,1.41-1.83.17a10.37,10.37,0,0,0-1.24.79,12.3,12.3,0,0,1-8.41,2.78l-7.49-.56,3.41-6.7a66.37,66.37,0,0,1,12.45-16.48l1-1,1.33-.34c1.45-.37,1.53-.88,1.38-1.87-.55-3.58-2.78-6-6.81-7.26s-5.41.14-6.41,1.76l-.2.32-.24.29c-2.73,3.21-3.35,4.58-2.9,6.4l.42,1.67-.7,1.58c-.73,1.63-1.51,3.23-2.27,4.77a59.16,59.16,0,0,0-4.16,9.94c-1.78,6.47-5.77,9.57-12.55,9.77-8.07.23-9.65-6-10.31-8.73-.1-.41-.21-.84-.33-1.26a37.57,37.57,0,0,1-1.18-9.47c-.12-3.45-.22-6.43-1.57-8.9l-1.27-2.33,1.22-2.36c1.59-3.08.54-4.07-1-5-2.71-1.71-9-.5-11.07,2.13-1.15,1.47-1.9,2.44,1.3,5.38l.74.68.42.91,2.17,4.74c1.8,3.93,3.66,8,5.54,11.94.08.17.29.51.48.81.93,1.48,2.48,3.94,1.65,7a7.73,7.73,0,0,1-4.13,4.82c-2.32,1.24-9.39,5-15.08-1.2A27,27,0,0,1,68.33,49c-.25-.36-.5-.73-.76-1.08L67,47.16l-.24-.94c-.27-1.07-.6-1.29-1.51-1.46l-.59-.11-.55-.24a37.64,37.64,0,0,1-4.9-2.74C57,40.27,55,39,53,39l-3-.13-1.11-2.39-.82.11a16.55,16.55,0,0,1-3.54.21l-9.7-.07c-3.54-.49-4.35.06-5,.84L28.46,39l-4.76.49h-.28c-.77,0-1.55,0-2.32-.06a40.92,40.92,0,0,0-4.25,0l.33.72c3,6.62,6,11.13,9.61,14.61l.86.82L28,56.7c.51,1.43.91,2.55,5.54,2.18Zm155-9h0Zm-88.4-6.81Z"/><path class="cls-2" d="M153.66,120.4c1.49,4.93,4.85,8.93,6.85,13.56,6.91,16,.52,27.72-11.29,39.23-23.61,23-70.3,21-94.66,6.25-14.89-9-22.92-25.19-20.45-42.15.66-4.57,3.5-8,5.47-12,2.83-9.5,11.25-13.77,18.7-18,12.85-7.31,27.26-8.78,42-8.13,10.56.46,20.85,1.28,30.81,5.22A56,56,0,0,1,153.66,120.4Z"/><path class="cls-3" d="M153.66,120.4c-5.75-1.51-9-6.65-14-9.55a67.28,67.28,0,0,0-31.56-9.64,179.57,179.57,0,0,0-20.67-.15c-16.87,1.16-31.18,7.56-43.58,18.95-1.8,1.66-1,5.13-4.3,5.31-6.91-21.1-4.15-40.53,11.16-58.22-6.15-1.62-12.13.63-16.74-3.23-3.41-2.12-8.11-1.71-10.66-5.48-4.78-4.58-8-10.2-10.71-16.15-2.16-4.61-.48-6.65,4.39-6.65,2.2,0,4.47.29,6.45-1.08L26,34.23c2.91-1.76,6.55-.74,9.47-2.49l9.23,0c2.5,2,6,.28,8.51,2.21,5.11.22,8.6,4,12.94,5.89A14.35,14.35,0,0,0,71.61,45a41.9,41.9,0,0,0,2.77,3.74c2.9,3.16,6.21,1.68,9.05.17,3.42-1.82.82-4-.17-6.11-2.63-5.55-5.16-11.15-7.74-16.73C81.48,23.58,88,23.85,94.12,22.2c3.31,6.06,1.3,13,3.16,19.35,1,3.27.91,6.54,5.7,6.4,4.32-.13,6.61-1.52,7.87-6.1,1.48-5.35,4.39-10.3,6.68-15.42,1.27-2,2.34-4.37,5.41-3.94,4.94,3.34,10.4,5.67,15.88,8a60.77,60.77,0,0,0-11.55,15.23c4,.3,5.64-3.26,8.73-3.56,2.62-1.29,5.86-.48,8.29-2.43,13.31-1.52,25.39,1.13,35.78,10.15,1.89,1.64,4.64,2.28,7,3.38,1.41,1.45,4.78,1.85,2.75,5.14-5.16,5.28-10.36,10.51-17.18,13.72-3.06,1.49-6.63.83-9.7,2.26l-5.21.07c-2.22-1.92-4.9-1.37-7.37-1.1-3.46.37-2,2.33-.94,4a74.1,74.1,0,0,1,7.33,24.14A30.89,30.89,0,0,1,153.66,120.4Z"/><path class="cls-4" d="M138.82,30.44c-7.17,1.26-11.87-3-16.57-7.35-3.08-2.21-1.58-4.89-.77-7.5,3-4.77,7.39-5.44,12.2-3.88,5.44,1.76,9.32,5.48,10.21,11.26C144.44,26.54,142.71,29.44,138.82,30.44Z"/><path class="cls-5" d="M94.12,22.2c-5.47,4.78-12,4.52-18.58,3.87-3.87-3.55-5.52-7.46-1.86-12.14,3.52-4.51,12.7-6.42,17.68-3.28C95.77,13.43,96.51,17.55,94.12,22.2Z"/><path class="cls-6" d="M23.48,34.48c-1,3.24-3.9,2.51-6,2.35-4.3-.32-5.15,1.87-4.87,5.38-1.89-1.69-3.63-3.61-2.41-6.3s3.92-1.27,6-1.45C18.59,34.25,21,34.46,23.48,34.48Z"/><path class="cls-7" d="M149.42,77.31c-2.47-.42-3.3-2.55-5.17-5,5.12-.35,9.65-2.38,13.48,2.05C155.17,76,150.65,71.95,149.42,77.31Z"/><path class="cls-8" d="M23.34,58.37c3.4,2.13,8.24,1.45,10.66,5.48C29.31,64.24,25.17,63.54,23.34,58.37Z"/><path class="cls-9" d="M121.48,15.59c.4,2.49-.65,5.12.77,7.5-2.55-.27-2.17,3.61-4.72,3.34C116.41,21.93,118.82,18.72,121.48,15.59Z"/><path class="cls-10" d="M71.61,45c-3.8.39-5.82-1.12-5.47-5.14A6.43,6.43,0,0,1,71.61,45Z"/><path class="cls-11" d="M174.82,70.35c.49-2.47-2.76-2.93-2.75-5.14,2-.06,4.55-1.08,5.38,1.79C178,68.89,177.12,70.35,174.82,70.35Z"/><path class="cls-12" d="M53.21,34c-2.92-.41-6.62,2.17-8.51-2.21C47.65,32.06,51.27,29.78,53.21,34Z"/><path class="cls-13" d="M162.94,74.33c2.79-2.65,6.17-2.78,9.7-2.26C170.1,75.79,166.36,74.38,162.94,74.33Z"/><path class="cls-14" d="M35.47,31.73C33.05,35.37,29.32,34,26,34.23,28.6,31.27,32,31.25,35.47,31.73Z"/><path class="cls-15" d="M144.29,39.69c-1.76,4.22-5.39,2.07-8.29,2.43C138.28,39.65,141.16,39.23,144.29,39.69Z"/><path class="cls-16" d="M81.34,127.1c-.14,2.6-1.19,6.12-5.66,6.32-3.52.16-4.13-2.8-4-5.67.21-3.71,1.07-7.55,5.43-8C81.06,119.43,81.43,122.78,81.34,127.1Z"/><path class="cls-17" d="M122.79,124c-.56,4.09-1.73,7.67-5.93,8.2-3.33.42-4.85-2.52-4.52-5.29.41-3.45,1.22-7.51,5.71-7.95C121.48,118.66,122.15,121.68,122.79,124Z"/><path class="cls-18" d="M155.7,47.62c6.49-3,11.6,3.67,17.75,6.71,4.3,2.12,3.26,4.37-.9,7.09-11.23,7.31-23,.65-34.49,1.78-2.67.26-7.12-3.7-6.87-7.82.22-3.63,4.2-4,7.25-5.4C143.61,47.57,148.67,47.77,155.7,47.62Z"/><path class="cls-19" d="M20.76,42.77c5.76-.71,10.78-.48,15.56-2.83a8.45,8.45,0,0,1,8.82,1.22C50.4,45.37,58.39,44,63,50.18c3.27,4.38,3,7.44-2.58,8-12.71,1.21-25.42,1.18-33.81-11C25.15,45.11,22.57,45.6,20.76,42.77Z"/><path class="cls-20" d="M84.1,83.19C83.7,86,82.93,89,79.6,88.81c-3.63-.18-4.44-3.27-4.2-6.34.22-2.75,1.07-5.56,4.66-5.16C83.41,77.69,83.84,80.52,84.1,83.19Z"/><path class="cls-21" d="M121.31,82.32c-.55,2.59-.66,5.6-4.22,5.86s-4.65-2.5-4.69-5.23.49-5.59,4.07-5.87S120.66,79.63,121.31,82.32Z"/><path class="cls-22" d="M121.32,101.69c-9.84,0-17.47-7.89-17.49-18.15A17.34,17.34,0,0,1,121.11,66c9.68-.11,18.26,7.71,17.76,17.06C138.25,94.67,131.63,101.35,121.32,101.69Z"/><path class="cls-23" d="M121.79,87.39c-3.4-.72-5.8-2.8-5.46-6.75.31-3.51,2.42-5.65,6.21-5.47,4.17.2,5.89,2.71,5.72,6.6S125.7,87.16,121.79,87.39Z"/><path class="cls-24" d="M52.76,83.72C52.85,73.78,60.3,66.29,70,66.35,80.22,66.42,88,74.17,87.77,84.1S79.56,102.08,70,102C60.21,101.86,52.68,93.88,52.76,83.72Z"/><path class="cls-25" d="M71.46,87.6c-3.79-.11-6.09-2.07-6.33-5.63-.26-3.83,1.75-6.54,5.79-6.65s6.17,2.16,6.18,6.23C77.11,85.35,75,87.16,71.46,87.6Z"/><path class="cls-26" d="M65.08,156.57S80.53,168.5,98.52,168.5s33.68-11.93,33.68-11.93"/></svg>