<svg id="Layer_1" data-name="Layer 1" xmlns="http://www.w3.org/2000/svg" viewBox="0 0 200 200"><defs><style>.cls-1,.cls-10{fill:#e7aaaa;}.cls-1,.cls-2{stroke:#231f20;stroke-miterlimit:10;stroke-width:2px;}.cls-2{fill:#fff;}.cls-3{fill:#6495ed;}.cls-4{fill:#231f20;}.cls-5{fill:#f9f9f7;}.cls-6{fill:#0e0d0f;}.cls-7{fill:#faf9f9;}.cls-8{fill:#0d0e0e;}.cls-9{fill:#f0f0f0;}</style></defs><title>hippo</title><path class="cls-1" d="M168.26,105.92c0-23.82-7.94-45.4-20.81-61.1a39.54,39.54,0,0,0,4.08-8.28c4.72-13.2,1.95-26.25-6.18-29.16-7.91-2.83-18,5-22.87,17.57a60.82,60.82,0,0,0-50.91-.75C65.41,12.77,55,6.43,47.59,9.93c-7.81,3.69-9.27,17-3.28,29.62a41.1,41.1,0,0,0,2,3.69c-13.64,15.82-22.13,38-22.13,62.67,0,35.14,17.29,65.41,42.16,79.11v7.51H90.21c2,.2,4,.3,6,.3a60.44,60.44,0,0,0,11.45-1.1h19.23v-7.16C151.34,170.69,168.26,140.69,168.26,105.92Z"/><path class="cls-2" d="M96.22,197.84c-2.05,0-4.15-.1-6.25-.3H61.33v-9.63c-25.7-15.58-42.16-47.4-42.16-82,0-23.79,7.47-46.1,21.1-63.24q-.25-.49-.48-1c-3.29-7-4.71-14.36-4-20.86.81-7.28,4.32-12.9,9.65-15.42C54.35,1.2,65.92,6.57,73.66,18a65.67,65.67,0,0,1,46.3.44C126.49,5.94,137.53-.72,147,2.68c10.9,3.9,14.94,19.51,9.21,35.55a45.37,45.37,0,0,1-2.75,6.2c12.77,16.9,19.76,38.6,19.76,61.5,0,34.14-16.15,65.76-41.37,81.51v10.32H108.13C104.2,198.47,100.19,197.84,96.22,197.84Zm-24.89-10.3,19.38,0a55.11,55.11,0,0,0,16-.73l.47-.09h14.7v-5.07l2.53-1.44c23.6-13.42,38.84-42.59,38.84-74.32,0-21.87-7-42.44-19.67-57.93l-2.32-2.83,2-3.07a34.46,34.46,0,0,0,3.56-7.23c4-11.31,1.58-21.07-3.16-22.76-5.61-2-13.21,6.13-16.52,14.68l-1.94,5-4.85-2.29a55.82,55.82,0,0,0-46.76-.69l-4.22,1.85-2.19-4.06c-5.25-9.72-13.26-14.13-17.45-12.14-2.12,1-3.57,3.73-4,7.48-.51,4.62.61,10.26,3.09,15.49a35.93,35.93,0,0,0,1.75,3.24l1.88,3.11-2.37,2.75C36.6,62.15,29.17,83.25,29.17,105.92c0,32.15,15.53,61.49,39.57,74.73l2.59,1.43Z"/><ellipse class="cls-3" cx="96.22" cy="105.92" rx="72.04" ry="86.92"/><path id="path4173" class="cls-4" d="M89.29,148.07a11.48,11.48,0,1,1-11.48-11.48A11.48,11.48,0,0,1,89.29,148.07Z"/><path id="circle4185" class="cls-4" d="M124.33,148.07a11.48,11.48,0,0,1-11.48,11.48h0a11.48,11.48,0,0,1-11.48-11.48h0a11.48,11.48,0,0,1,11.48-11.48h0a11.48,11.48,0,0,1,11.48,11.48Z"/><path class="cls-5" d="M123,103.68c-8.76,0-15.54-7-15.56-16.14a15.42,15.42,0,0,1,15.37-15.59c8.61-.1,16.24,6.85,15.8,15.18C138,97.44,132.13,103.38,123,103.68Z"/><path class="cls-6" d="M122.55,93.25c-3-.64-5.16-2.49-4.85-6,.27-3.13,2.15-5,5.53-4.87,3.71.18,5.24,2.41,5.09,5.87S126,93,122.55,93.25Z"/><path class="cls-7" d="M54.15,87.39c.08-8.84,6.71-15.51,15.37-15.45,9.05.06,15.94,7,15.77,15.79s-7.3,16-15.83,15.9C60.77,103.54,54.07,96.43,54.15,87.39Z"/><path class="cls-8" d="M70,93.26c-3.37-.1-5.42-1.84-5.63-5-.23-3.41,1.56-5.82,5.15-5.92s5.49,1.92,5.5,5.55C75.06,91.26,73.15,92.87,70,93.26Z"/><ellipse class="cls-3" cx="58.45" cy="32.86" rx="15.64" ry="25.37" transform="translate(-8.44 28.16) rotate(-25.33)"/><ellipse class="cls-3" cx="136.82" cy="31.28" rx="25.37" ry="15.64" transform="translate(61.31 149.58) rotate(-70.33)"/><rect class="cls-9" x="66.33" y="168.45" width="24.09" height="24.09"/><rect class="cls-9" x="102.8" y="168.66" width="24.09" height="24.09"/><path id="path4173-2" data-name="path4173" class="cls-10" d="M64.46,25.74c2.36,5.35.6,11.31-3.92,13.3S50.44,38.31,48.08,33s-.6-11.31,3.92-13.3S62.1,20.38,64.46,25.74Z"/><path id="path4173-3" data-name="path4173" class="cls-10" d="M146.08,31.37c-2.25,5.4-7.77,8.24-12.33,6.34s-6.44-7.82-4.19-13.22,7.77-8.24,12.33-6.34S148.33,26,146.08,31.37Z"/></svg>