<svg id="Layer_1" data-name="Layer 1" xmlns="http://www.w3.org/2000/svg" viewBox="0 0 200 200"><defs><style>.cls-1,.cls-10{fill:#b0a890;}.cls-1,.cls-2{stroke:#231f20;stroke-linejoin:round;stroke-width:2px;}.cls-2{fill:#fff;}.cls-3{fill:#d7cdbf;}.cls-4{fill:#e7aaaa;}.cls-5{fill:#f9f9f7;}.cls-6{fill:#0e0d0f;}.cls-7{fill:#faf9f9;}.cls-8{fill:#0d0e0e;}.cls-9{fill:#8e4f44;}</style></defs><title>kitty</title><path class="cls-1" d="M192,77.12c0-10.61-.09-38-.09-38s-27.74-.47-38.35-.47h0a38.43,38.43,0,0,0-22.08,7c-1.89-.88-3.83-1.66-5.78-2.37h0l-1.58-.56-.38-.13c-2.62-.9-7.12-2.35-8.8-2.36A74.86,74.86,0,0,0,106.36,39l.08-.05A69.68,69.68,0,0,0,91,39.24l.05,0a74.86,74.86,0,0,0-7.85,1.4l0,0S75.94,42,72.93,43.89c-1.43.56-2.85,1.16-4.24,1.81a38.43,38.43,0,0,0-22.05-7c-10.61,0-37.58.09-37.58.09S8.2,66.5,8.2,77.12a38.43,38.43,0,0,0,17.2,32q-.14,2.22-.16,4.45a46.8,46.8,0,0,0,2.22,13.53c.74,2.74,1.79,6.12,2.82,7.57a86,86,0,0,0,4.41,8.64h0a38.3,38.3,0,0,0,5.53,8.48h0c14.41,19.85,37.28,36.66,59.91,36.66,22.84,0,45.93-17.13,60.31-37.21,0,.19,0,.36,0,.55a38.3,38.3,0,0,0,5.53-8.48l-.32-.17a86.41,86.41,0,0,0,4-7.79c2-.82,4.54-12.31,4.54-12.31l-.32-.07a43.08,43.08,0,0,0,1.12-9.4q0-2.21-.22-4.41A38.43,38.43,0,0,0,192,77.12Z"/><path class="cls-2" d="M100.12,193.46c-17.29,0-43.11-10.12-63.81-38.52a43.65,43.65,0,0,1-6.09-9.34,91.63,91.63,0,0,1-4.36-8.52c-.76-1.21-1.84-3.47-3.22-8.59a51.65,51.65,0,0,1-2.41-14.91q0-1,0-2A43.33,43.33,0,0,1,3.2,77.12c0-10.57.82-37.37.86-38.51l.15-4.83,4.83,0s27-.08,37.59-.08A43.2,43.2,0,0,1,69.15,40l1.57-.64a26.51,26.51,0,0,1,5.2-2.1h0l14.32-3,5.49-.54h0A74.28,74.28,0,0,1,107,34l14.14,2.52h0c1.19.35,2.61.81,4.32,1.39l.38.13,1.66.58,3.7,1.34a43.18,43.18,0,0,1,22.41-6.25c10.54,0,38.16.47,38.44.47l4.9.08,0,4.9s.08,27.36.08,38h0a43.32,43.32,0,0,1-17.1,34.5q0,.92.06,1.84v.1a43.69,43.69,0,0,1-.36,5.47l.52.1-1.08,5c-2,9.11-3.86,12.8-5.4,14.46q-.61,1.3-1.27,2.61l0,0-1.92,4.21a43.47,43.47,0,0,1-6.37,9.75l-2.36,2.62a106.77,106.77,0,0,1-25.62,23.81C124.25,189.35,111.78,193.46,100.12,193.46ZM39.68,142.15a32.09,32.09,0,0,0,4.24,6.3l.33.41c15.26,21,37.19,34.6,55.87,34.6,18.89,0,41-13.79,56.24-35.12l2.72-3.8,2.25-3.89a81.78,81.78,0,0,0,3.77-7.34l.83-1.84.69-.28a36.19,36.19,0,0,0,1.46-4.28l-.19,0,1.12-5a38.22,38.22,0,0,0,1-8.25c0-1.35-.1-2.71-.21-4.06l-.24-2.94L172,105a33.35,33.35,0,0,0,15-27.87c0-7.81,0-24.68-.07-33-8.45-.13-25.61-.39-33.36-.39a33.26,33.26,0,0,0-19.2,6.09L132,51.44l-2.62-1.22c-1.58-.74-3.35-1.46-5.4-2.21l-1.79-.65a45.71,45.71,0,0,0-7.32-2.1h-.49l-.4-.1a70.08,70.08,0,0,0-8.1-1.18l-3-.26a67.41,67.41,0,0,0-8.21.16l-3,.37a70.33,70.33,0,0,0-7.32,1.31l-5.43,1.27a15.6,15.6,0,0,0-3.33,1.29l-.4.25-.44.17c-1.48.58-2.78,1.13-4,1.69l-2.62,1.22L65.8,49.78a33.27,33.27,0,0,0-19.18-6.1c-7.8,0-24.46,0-32.71.07-.24,8.42-.71,25.62-.71,33.36a33.36,33.36,0,0,0,15,27.84l2.42,1.6-.19,2.89c-.09,1.38-.14,2.77-.15,4.15a41.75,41.75,0,0,0,2,12l0,.16c1.29,4.77,2,5.94,2.08,6l.29.41.2.46A81.21,81.21,0,0,0,39,140.8l.68,1.16Z"/><path id="path4234" class="cls-3" d="M153.61,38.68c10.61,0,38.35.47,38.35.47s.09,27.35.09,38a38.43,38.43,0,0,1-17.26,32q.18,2.2.22,4.41c0,29.66-37.77,74.89-74.89,74.89s-74.89-45.22-74.89-74.89q0-2.23.16-4.45a38.43,38.43,0,0,1-17.2-32c0-10.61.86-38.35.86-38.35s27-.09,37.58-.09a38.43,38.43,0,0,1,22.05,7,74,74,0,0,1,62.85,0,38.43,38.43,0,0,1,22.08-7Z"/><path id="path4236" class="cls-4" d="M155.33,46.07a30.37,30.37,0,0,1,16.74,55.71A59.2,59.2,0,0,0,137.87,51.6,30.38,30.38,0,0,1,155.33,46.07Z"/><path id="path4238" class="cls-4" d="M44.63,46.07a30.37,30.37,0,0,0-16.74,55.71A59.2,59.2,0,0,1,62.08,51.6,30.38,30.38,0,0,0,44.63,46.07Z"/><path class="cls-5" d="M128.37,129c-8.76,0-15.54-7-15.56-16.14a15.42,15.42,0,0,1,15.37-15.59c8.61-.1,16.24,6.85,15.8,15.18C143.43,122.72,137.54,128.66,128.37,129Z"/><path class="cls-6" d="M128,118.54c-3-.64-5.16-2.49-4.85-6,.27-3.13,2.15-5,5.53-4.87,3.71.18,5.24,2.41,5.09,5.87S131.44,118.33,128,118.54Z"/><path class="cls-7" d="M57.83,112.92c.08-8.84,6.71-15.51,15.37-15.45,9.05.06,15.94,7,15.77,15.79s-7.3,16-15.83,15.9C64.45,129.06,57.75,122,57.83,112.92Z"/><path class="cls-8" d="M73.71,118.78c-3.37-.1-5.42-1.84-5.63-5-.23-3.41,1.56-5.82,5.15-5.92s5.49,1.92,5.5,5.55C78.74,116.78,76.83,118.39,73.71,118.78Z"/><path class="cls-9" d="M100,158l3.13.13c0,.76,0,1.52,0,2.28.08,5.19-1.33,11.37,6.23,12.52,7,1.07,11.36-2.86,13.94-9.09.54-1.31,1.18-2.57,2.07-4.51,1.16,10.25-8.49,18.75-17.21,15.75-4.2-1.44-7.41-2.48-12.27-.41-9.31,4-20.54-4.15-19.83-15.12,1.48,5.7,3.57,9,7.51,10.93s8.08,4,12.27,2C102,169.3,101.64,163.68,100,158Z"/><path id="path4240" class="cls-4" d="M101.71,164.92,90.54,154.46l-11.17-6.88a45.82,45.82,0,0,1,44.67,0l-11.17,6.88Z"/><path class="cls-10" d="M31.22,135.4c-2.08,0-4.77-12.36-4.77-12.36l21.39-4.34S32.11,125.63,31.22,135.4Z"/><path class="cls-10" d="M40.21,151.8a38.3,38.3,0,0,1-5.53-8.48s12-6.67,21.39-6.67C47.84,140.1,40,143.8,40.21,151.8Z"/><path class="cls-10" d="M169.44,135.4c2.08,0,4.77-12.36,4.77-12.36l-21.39-4.34S168.55,125.63,169.44,135.4Z"/><path class="cls-10" d="M160.45,151.8a38.3,38.3,0,0,0,5.53-8.48s-12-6.67-21.39-6.67C152.82,140.1,160.62,143.8,160.45,151.8Z"/><path class="cls-10" d="M91,39.24a69.68,69.68,0,0,1,15.43-.31c-6.27,3.5-7.73,28.35-7.73,28.35S97.76,42.68,91,39.24Z"/><path class="cls-10" d="M72.43,44.24c2.6-2.09,10.81-3.58,10.81-3.58-3.68,3.78.48,21.7.48,21.7S77.9,45.24,72.43,44.24Z"/><path class="cls-10" d="M115,40.24c2.33,0,10.83,3.05,10.83,3.05-5.11,1.29-10.68,18.3-10.68,18.3S119.1,44,115,40.24Z"/></svg>