<svg id="Layer_1" data-name="Layer 1" xmlns="http://www.w3.org/2000/svg" viewBox="0 0 200 200"><defs><style>.cls-1,.cls-11{fill:#8e4f44;}.cls-1,.cls-2{stroke:#231f20;stroke-width:2px;}.cls-2{fill:#fff;}.cls-3{fill:#dbd3ca;}.cls-4{fill:#ea98a9;}.cls-5{fill:#f9f9f7;}.cls-6{fill:#0e0d0f;}.cls-7{fill:#faf9f9;}.cls-8{fill:#0d0e0e;}.cls-9{fill:#f4ebe1;}.cls-10{fill:#a82c1e;}</style></defs><title>lamb</title><path class="cls-1" d="M187.61,76.18a36.13,36.13,0,0,0-22.95-33.64c-3.64-5.33-10-9.15-16.59-9.21-4,0-6.88,0-8.9-4.76-1.8-4.25-6.54-6.2-11.49-4.52-3.46,1.17-4.82.19-6.37-3.13C116.5,10.65,96.94,7.76,90.9,17.12c-3.88,6-7,5.33-12.35,3.94C62.67,17,50.09,23.3,48,36.81A12.92,12.92,0,0,1,47,40.27a36.11,36.11,0,0,0-16.08,66q-.14,2.09-.15,4.18c0,57.85,38.41,79.13,70.4,79.13s70.4-21.28,70.4-79.13q0-2.08-.21-4.15A36.13,36.13,0,0,0,187.61,76.18Z"/><path class="cls-2" d="M101.2,194.58c-37.53,0-75.39-26-75.39-84.13q0-.85,0-1.7A41.11,41.11,0,0,1,43.06,35.81,23.87,23.87,0,0,1,53.52,19.22c6.89-4.53,16.22-5.59,26.28-3,4.92,1.27,4.91,1.26,6.89-1.81,3.54-5.5,10.51-8.44,18.63-7.9,9.25.62,17.3,5.45,20.51,12.29l.25.51c7.39-2.5,14.83.57,17.69,7.31.71,1.68.71,1.68,4.19,1.71h.14a26.16,26.16,0,0,1,19.75,10.12,40.88,40.88,0,0,1,24.74,37.72h0a41,41,0,0,1-16.07,32.58c0,.53,0,1.06,0,1.58v.1C176.59,168.57,138.72,194.58,101.2,194.58ZM69.34,24.83A18.62,18.62,0,0,0,59,27.58a14,14,0,0,0-6.11,10,17.55,17.55,0,0,1-1.35,4.8l-1.2,2.55-2.8.3A31.11,31.11,0,0,0,33.71,102.1l2.42,1.6-.19,2.89c-.08,1.28-.13,2.59-.14,3.89,0,24.6,7.47,44.52,21.6,57.55,11.39,10.52,27.36,16.55,43.8,16.55s32.41-6,43.8-16.55c14.12-13,21.59-32.92,21.6-57.53,0-1.26-.09-2.54-.19-3.8l-.24-2.94,2.46-1.63a31.1,31.1,0,0,0-5.79-54.93l-1.43-.56-.87-1.27a16.17,16.17,0,0,0-12.5-7h-.14c-4,0-10-.09-13.32-7.8-.79-1.87-2.87-2.55-5.29-1.74-8.46,2.88-11.51-3.62-12.5-5.75-1.63-3.49-6.62-6.18-12.12-6.55-4.38-.29-8,1-9.55,3.34-5.46,8.47-11,7.81-17.8,6.08A32.08,32.08,0,0,0,69.34,24.83Z"/><g id="g4474"><path id="path4420" class="cls-3" d="M151.48,40.06a36.11,36.11,0,0,1,19.91,66.25q.16,2.07.21,4.15c0,57.85-38.41,79.13-70.4,79.13S30.8,168.3,30.8,110.45q0-2.09.15-4.18A36.1,36.1,0,1,1,71.64,46.65a69.53,69.53,0,0,1,59.08,0,36.13,36.13,0,0,1,20.76-6.58Z"/><path id="path4430" class="cls-4" d="M153.09,47a28.54,28.54,0,0,1,15.73,52.37A55.65,55.65,0,0,0,136.68,52.2,28.56,28.56,0,0,1,153.09,47Z"/><path id="path4432" class="cls-4" d="M49,47A28.54,28.54,0,0,0,33.3,99.37,55.65,55.65,0,0,1,65.44,52.2,28.56,28.56,0,0,0,49,47Z"/></g><path class="cls-5" d="M133,120.61c-8.23,0-14.61-6.6-14.63-15.17a14.5,14.5,0,0,1,14.45-14.66c8.09-.09,15.27,6.44,14.85,14.27C147.12,114.74,141.59,120.32,133,120.61Z"/><path class="cls-6" d="M132.58,110.8c-2.84-.6-4.85-2.34-4.56-5.64.26-2.94,2-4.73,5.19-4.58,3.48.17,4.92,2.26,4.79,5.52S135.85,110.61,132.58,110.8Z"/><path class="cls-7" d="M55.47,105.3c.07-8.31,6.3-14.57,14.45-14.52,8.51.06,15,6.54,14.82,14.84s-6.86,15-14.88,14.94C61.7,120.47,55.4,113.79,55.47,105.3Z"/><path class="cls-8" d="M70.41,111c-3.17-.09-5.09-1.73-5.29-4.71-.21-3.2,1.47-5.47,4.84-5.56s5.16,1.8,5.17,5.21C75.13,109.15,73.34,110.67,70.41,111Z"/><path class="cls-9" d="M147.78,86.18c-3-.72-5.7-.13-8.78.59-14.22,3.35-28.55,11.78-43.09.79-2.46-1.86-4.93-1.11-7.31.3-6.56,3.88-13.27,1.9-19.85.26a11.72,11.72,0,0,1-8.5-7.89C58.9,76.44,56,74.44,52,74.85c-6.1.63-11.69-1.34-17.38-2.9-7.56-2.81-9.38-8.52-8.54-16,.75-6.7,6.1-10.61,14.71-12.2,4.8-.89,6.4-1.81,7.21-7C50.09,23.3,62.67,17,78.56,21.07c5.39,1.39,8.47,2.08,12.35-3.94,6-9.36,25.6-6.47,30.41,3.8,1.56,3.33,2.91,4.31,6.37,3.13,5-1.68,9.69.27,11.49,4.52,2,4.76,4.94,4.72,8.9,4.76,8.59.08,16.95,6.62,19.12,14.57,1.26,4.63.51,9-4,11-4.68,2.17-2.61,4.5-1.17,7.17.68,5.24-.57,10.66,1.41,15.79C158.7,85.08,152.69,83.6,147.78,86.18Z"/><path class="cls-10" d="M99.07,156.15c-.24,0-.47,0-.7-.09-5.75-1.21-12.43-1.62-13-9.4-.36-4.83,6.46-8.35,14.63-8.25s14.83,3.52,14.7,8.24c-.22,8.09-7,8.25-12.68,9.62A2.25,2.25,0,0,1,99.07,156.15Z"/><path class="cls-11" d="M99.07,156.15l2.94.12c0,.71,0,1.43,0,2.14.07,4.87-1.25,10.69,5.86,11.77,6.62,1,10.68-2.69,13.1-8.55.51-1.23,1.11-2.42,1.94-4.24,1.09,9.63-8,17.62-16.18,14.81-4-1.36-7-2.33-11.53-.39-8.75,3.73-19.31-3.91-18.64-14.21,1.39,5.36,3.36,8.5,7.06,10.27s7.59,3.79,11.53,1.84C101,166.81,100.66,161.53,99.07,156.15Z"/></svg>