<svg id="Layer_1" data-name="Layer 1" xmlns="http://www.w3.org/2000/svg" viewBox="0 0 200 200"><defs><style>.cls-1,.cls-10{fill:#8e4f44;}.cls-1,.cls-2{stroke:#231f20;stroke-miterlimit:10;stroke-width:2px;}.cls-2{fill:#fff;}.cls-3{fill:#f99802;}.cls-4{fill:#dfac89;}.cls-5{fill:#f0d9d2;}.cls-6{fill:#f9f9f7;}.cls-7{fill:#faf9f9;}.cls-8{fill:#0e0d0f;}.cls-9{fill:#0d0e0e;}</style></defs><title>lion</title><path class="cls-1" d="M177.74,99.28c11.64-6.6,14.16-16.83,11.61-29.1-1.3-2.54-3.68-4.38-4.57-7.18a14.2,14.2,0,0,0-8.57-6.1c-7.63-1.62-12.15-5-10.72-13.51.14-.82-.65-1.83-1.08-2.71-6.53-13.21-21.42-18.5-34.91-12.37-2.47,1.12-4.63,2.34-6.46-1.18-5.42-10.49-14.62-14.6-25.86-13.49C86.58,14.69,79,20.45,75.8,31c-1,3.2-2.49,3.68-5.18,1.83a26.79,26.79,0,0,0-4.28-2.14C57.76,26.81,46.56,29,39.11,36a23,23,0,0,0-6.86,22.34,30.3,30.3,0,0,0-3.93,13.23c-11,3.27-17.25,10.32-17.9,20.74-.71,11.29,3.65,20.92,21.69,26.56-12.92,12.22-11.32,23.1-6.68,31.58,6.42,11.72,15.83,14,36.31,9.12,2.27,18.07,8.12,26.49,20.39,28.33,5.71.85,11.44.74,17-2,7.5-3.64,11.57-9.81,14.16-17.89,1.27,1.18,2,1.84,2.68,2.48s1.47,1.35,2.27,1.95c9.6,7.17,19.76,8.24,30.13,2,8.88-5.31,12.83-13.43,11.51-23.76-.46-3.57.84-4.46,4.13-4.75,6.73-.6,12.6-3.39,16.65-8.93,7.69-10.52,7.38-18.23-.81-30.68C178.6,104.19,173.5,103.13,177.74,99.28Z"/><path class="cls-2" d="M88,193a44.5,44.5,0,0,1-6.59-.52c-16.08-2.41-21.36-15.05-23.57-27.33C41.2,168.48,29.15,167,21.34,152.7c-6.11-11.15-5.2-21.85,2.68-31.89C10.91,114.89,4.93,105.43,5.77,92,6.47,80.79,12.91,72.4,24,68.13a34.59,34.59,0,0,1,3.35-10.5,27.65,27.65,0,0,1,8.57-25c8.79-8.26,22.08-10.8,32.33-6.18l.79.35c.88.39,1.84.81,2.8,1.34C75.8,17,84.58,10.2,96.72,9c13.39-1.33,24.06,4.14,30.14,15.39l.32-.15.38-.18c15.75-7.16,33.38-.91,41,14.54.07.14.16.29.24.44a7.52,7.52,0,0,1,1.26,5.11c-.93,5.55,1.33,7,7.1,8.18a18.78,18.78,0,0,1,11.48,8.08L189,61l.2.63A10.36,10.36,0,0,0,191,64.37a23,23,0,0,1,2.49,3.69l.29.56.13.62c3,14.63-.9,25.65-11.71,32.77a8.72,8.72,0,0,1,1.62,1.92c9.26,14.12,9.43,23.86.62,35.9-4.61,6.3-11.47,10-19.86,10.81,1.39,12-3.38,21.65-13.8,27.88-11.71,7-23.92,6.2-35.31-2.31l-.32-.24A29.46,29.46,0,0,1,88,193ZM65.71,153.85l.65,5.14c1.73,13.74,5.08,22.6,16.46,24.31,5.87.88,10.28.4,14.31-1.55,5.65-2.74,9.28-7.4,11.76-15.12l2.24-7,6.5,6c.59.55,1,1,1.47,1.36l.45.41c.53.48,1,.93,1.5,1.28,8.35,6.24,16.51,6.82,25,1.78,7.34-4.38,10.37-10.66,9.28-19.17-.14-1.08-.56-4.39,1.52-7,1.85-2.3,4.62-2.82,6.82-3,5.78-.51,10.26-2.88,13.3-7,6.43-8.79,6.22-14.49-.94-25.37l0,0c-.15-.15-.48-.4-.71-.58-1.38-1.08-3.68-2.9-3.8-6.12-.08-2.24,1-4.38,3.17-6.37l.39-.35.45-.26c8.7-4.93,11.65-12.17,9.49-23.4-.34-.54-.79-1.12-1.27-1.73a19.44,19.44,0,0,1-3.06-4.95,9.41,9.41,0,0,0-5.36-3.7c-10.81-2.3-15.68-8.28-14.5-17.77-.18-.32-.36-.64-.51-.94-5.44-11-17.56-15.31-28.81-10.19l-.35.16c-2.08,1-8.4,3.85-12.17-3.44-4.27-8.27-11.42-12-21.26-11-9,.88-14.8,5.62-17.39,14.08-.94,3.08-2.58,5-4.86,5.84s-4.78.28-7.41-1.54a17.13,17.13,0,0,0-2.67-1.34l-.88-.39c-6.91-3.11-16-1.27-22.13,4.48a18.41,18.41,0,0,0-5.52,17.86L37.21,59l-.91,1.6A25.5,25.5,0,0,0,33,71.85l-.2,3.25L29.65,76c-9.16,2.73-14.07,8.31-14.59,16.57-.87,13.85,8.35,18.67,18.43,21.83l7.58,2.37-5.77,5.46c-6.14,5.8-12.35,14-5.8,26,5.85,10.68,14.71,10.71,31.16,6.82Zm114.75-50.7ZM73.84,29.33h0Zm53.56-4Z"/><path class="cls-3" d="M179.87,106.4c8.19,12.45,8.51,20.16.81,30.68-4.05,5.54-9.92,8.33-16.65,8.93-3.29.29-4.59,1.18-4.13,4.75,1.32,10.33-2.63,18.45-11.51,23.76-10.37,6.2-20.53,5.13-30.13-2-.8-.59-1.52-1.28-2.27-1.95s-1.4-1.3-2.68-2.48c-2.6,8.08-6.66,14.25-14.16,17.89-5.59,2.71-11.32,2.82-17,2C69.85,186.07,64,177.65,61.73,159.57c-20.48,4.84-29.89,2.6-36.31-9.12-4.64-8.48-6.24-19.37,6.68-31.58-18-5.64-22.4-15.27-21.69-26.56C11.23,79.2,21,71.38,37.76,69.79c-1.6-2.87-3.36-5.38-4.46-8.15A23,23,0,0,1,39.11,36c7.45-7,18.65-9.2,27.23-5.33a26.79,26.79,0,0,1,4.28,2.14c2.69,1.85,4.2,1.37,5.18-1.83C79,20.45,86.58,14.69,97.18,13.64c11.23-1.11,20.44,3,25.86,13.49,1.82,3.53,4,2.31,6.46,1.18,13.49-6.13,28.38-.84,34.91,12.37.44.88,1.22,1.89,1.08,2.71-1.43,8.55,3.09,11.88,10.72,13.51a14.2,14.2,0,0,1,8.57,6.1c.89,2.8,3.27,4.65,4.57,7.18,2.55,12.26,0,22.5-11.61,29.1C173.5,103.13,178.6,104.19,179.87,106.4Z"/><g id="g4297"><path id="path4136" class="cls-4" d="M143.63,42.93a30.48,30.48,0,0,1,16.8,55.91q.14,1.75.18,3.5a59.41,59.41,0,0,1-118.83,0q0-1.77.13-3.53A30.48,30.48,0,0,1,58.75,42.93h0a30.49,30.49,0,0,1,17.49,5.56,58.68,58.68,0,0,1,49.86,0,30.49,30.49,0,0,1,17.52-5.56Z"/><path id="circle4144" class="cls-5" d="M145,48.79A24.09,24.09,0,0,1,158.26,93a47,47,0,0,0-27.13-39.81A24.1,24.1,0,0,1,145,48.79Z"/><path id="path4154" class="cls-5" d="M57.16,48.79A24.09,24.09,0,0,0,43.88,93,47,47,0,0,1,71,53.18a24.1,24.1,0,0,0-13.85-4.39Z"/><path id="path4275" d="M101.19,126.41l-8.86-8.29-8.86-8.29a36.35,36.35,0,0,1,35.44,0L110,118.12Z"/></g><path class="cls-6" d="M128,96.75c-6.95,0-12.33-5.57-12.34-12.81a12.23,12.23,0,0,1,12.2-12.37c6.83-.08,12.88,5.44,12.53,12C140,91.8,135.28,96.51,128,96.75Z"/><path class="cls-7" d="M62.6,84A12,12,0,0,1,74.79,71.76,12.24,12.24,0,0,1,87.3,84.29,12.71,12.71,0,0,1,74.75,96.9C67.85,96.83,62.54,91.19,62.6,84Z"/><path class="cls-8" d="M127.67,88.48c-2.4-.51-4.09-2-3.85-4.76a3.85,3.85,0,0,1,4.38-3.86c2.94.14,4.15,1.91,4,4.66S130.43,88.31,127.67,88.48Z"/><path class="cls-9" d="M75.2,88.67c-2.67-.08-4.3-1.46-4.46-4C70.56,82,72,80.08,74.82,80s4.35,1.52,4.36,4.4C79.19,87.08,77.67,88.36,75.2,88.67Z"/><path class="cls-10" d="M99.49,125.57l2.49.1c0,.6,0,1.2,0,1.81.06,4.11-1.05,9,4.94,9.93,5.59.85,9-2.27,11.06-7.21.43-1,.93-2,1.64-3.58.92,8.13-6.74,14.88-13.66,12.5-3.34-1.15-5.88-2-9.73-.33-7.39,3.15-16.3-3.3-15.73-12,1.17,4.52,2.83,7.18,6,8.67s6.41,3.2,9.73,1.55C101.14,134.57,100.83,130.11,99.49,125.57Z"/></svg>