<svg id="Layer_1" data-name="Layer 1" xmlns="http://www.w3.org/2000/svg" viewBox="0 0 200 200"><defs><style>.cls-1,.cls-8{fill:#0d0e0e;}.cls-1,.cls-2{stroke:#231f20;stroke-miterlimit:10;stroke-width:2px;}.cls-2{fill:#fff;}.cls-3{fill:#bb56d4;}.cls-4{fill:#fefefe;}.cls-5{fill:#f9f9f7;}.cls-6{fill:#0e0d0f;}.cls-7{fill:#faf9f9;}</style></defs><title>octopus</title><path class="cls-1" d="M185.17,108.77c-3.79-3.56-11.11-2.19-13.33,2.49a4.62,4.62,0,0,0,.19,4.28c1.86,3.79,1.48,6.09-1,7.62a6.76,6.76,0,0,1-8.75-2.08,15,15,0,0,1-2.77-9.3c.09-5.17.18-10.35.38-15.53.63-16.65-3.81-31.69-15.27-44.3a58.86,58.86,0,0,0-34.15-18.82c-.67-.12-1.43,0-1.9-.66H92.34c-4.75,1.7-9.81,2.37-14.46,4.47-19.15,8.64-31,23.15-35.23,43.75-1.89,9.16-1,18.46-1.11,27.71,0,4.06-.27,8-2.95,11.31A7.8,7.8,0,0,1,32.51,123c-4.11.09-6.33-2.75-4.47-6.44,1.42-2.82,1.72-5.09-.71-7.16-2.9-2.47-6.2-3.59-10-2s-4.84,5-5.83,8.54a15.81,15.81,0,0,1-.65,1.62v10.18c3.82,12.63,20,14.79,30.45,10.5,1-.41,1.92-1,3.07-.9-2.19,5.38-6.64,8.84-10.77,12.54-1.77,1.59-4,2.74-5.6,4.42-2.69,2.75-2.72,8-.39,11.77,2,3.19,5.57,4.44,9.71,3.22a30.9,30.9,0,0,0,11.93-7.22,70.85,70.85,0,0,0,12.29-14.56c.58,3.81-.56,6.68-1.59,9.47a68.92,68.92,0,0,1-5.68,12.48c-2.07,3.36-.53,9.1,2.76,11.61,3.45,2.63,7.27,2.25,10.82-1,4.51-4.09,7-9.39,9.06-14.93a106.61,106.61,0,0,0,4.22-14c2,7.7.63,15.17-1.31,22.55a9.85,9.85,0,0,0,5.47,11.58c4.29,1.82,8.43.11,11-4.47C99.17,175.8,100,170.19,101,164c1,4.84,1.58,9.19,3.15,13.3a21.22,21.22,0,0,0,3,5.5,8.5,8.5,0,0,0,10.49,2.34c4-2.27,6-7.06,4.86-10.9a64.36,64.36,0,0,1-2.36-17c2,3.78,3.57,7.71,5.76,11.34a49.52,49.52,0,0,0,8.51,11.12,14.84,14.84,0,0,0,5,3.22c4.94,1.78,9.47-.38,10.72-5.46.87-3.52.63-6.73-2-10-4.62-5.67-8.66-11.87-9.86-19.44a81.8,81.8,0,0,0,14.41,17c3.19,2.91,6.64,5.45,10.85,6.71,5.28,1.59,9.6-.35,11.23-5,1.72-4.9.37-8.48-3.73-11.72-5.39-4.27-10.73-8.66-14-14.91-.44-.83-1.19-1.63-.79-3,4.62,1.91,9.32,3.58,14.36,3.24,6.64-.44,12.81-2,17-7.91C191.33,126.85,190,113.35,185.17,108.77Z"/><path class="cls-2" d="M88.69,190.83a13.38,13.38,0,0,1-5.24-1.11A14.42,14.42,0,0,1,75,179.27a30.54,30.54,0,0,1-3.95,4.36c-5.3,4.81-11.63,5.28-16.93,1.24-5-3.81-7-11.55-4.49-16.87a32.39,32.39,0,0,1-11,5.87c-6.21,1.83-12-.21-15.14-5.31-3.55-5.79-3.1-13.36,1-17.6a26.61,26.61,0,0,1,3.73-3,25.1,25.1,0,0,0,2.1-1.6L31.92,145a30.71,30.71,0,0,1-14.09-2.72A21.1,21.1,0,0,1,6.3,129.11l-.2-.68V116.61l.35-.86c.09-.21.18-.43.27-.64a5.06,5.06,0,0,0,.2-.49c1-3.63,2.57-9.13,8.58-11.65,3.57-1.49,9-2.22,14.91,2.79,4.64,4,3.79,8.87,2.12,12.46.59,0,1.31-.24,2.33-1.51,1.56-1.94,1.86-4.33,1.89-8.34,0-2.26,0-4.58-.06-6.83-.12-7.09-.25-14.42,1.27-21.81,4.53-22,17.29-37.82,37.95-47.14a55.48,55.48,0,0,1,9.12-3c2-.52,3.9-1,5.69-1.66l.78-.28H111l.55.78A63.85,63.85,0,0,1,148.1,48.75c11.67,12.84,17.23,28.89,16.51,47.69-.2,5.17-.29,10.45-.38,15.42a10.29,10.29,0,0,0,1.85,6.4,2.15,2.15,0,0,0,2.25.89,8.48,8.48,0,0,0-.6-1.51,9.32,9.32,0,0,1-.22-8.42,13.63,13.63,0,0,1,20.92-3.94h0c6.6,6.2,8.18,22.36,2.9,29.8-5.63,8-13.94,9.48-20.55,9.92a25.33,25.33,0,0,1-4.19-.08,89.24,89.24,0,0,0,7.31,6.27c5.84,4.63,7.61,10.36,5.27,17-2.49,7.1-9.37,10.3-17.12,8a27.51,27.51,0,0,1-6.79-3.15,18.17,18.17,0,0,1-.55,5.45,12.58,12.58,0,0,1-6.19,8.29,13.16,13.16,0,0,1-10.8.53,19.29,19.29,0,0,1-6.61-4.2,39.42,39.42,0,0,1-3.81-4.07,15.19,15.19,0,0,1-7.37,10.2,13.22,13.22,0,0,1-16.62-3.57,23.3,23.3,0,0,1-2.27-3.59q-.28.56-.59,1.1C97.7,188.14,93.38,190.83,88.69,190.83ZM80.8,131.2l5,18.78c2.32,8.75.74,17.18-1.31,25a5.11,5.11,0,0,0,2.71,6c.72.31,2.92,1.24,5-2.41,2.46-4.36,3.23-9.42,4.12-15.27l4-26.23,5.41,26c.25,1.21.48,2.4.7,3.56a53.36,53.36,0,0,0,2.24,9,16.57,16.57,0,0,0,2.29,4.28,3.74,3.74,0,0,0,4.35,1.1c2.19-1.24,3.14-3.76,2.65-5.34a69.56,69.56,0,0,1-2.57-18.29l-.68-20.85,9.69,18.48c.8,1.52,1.53,3.05,2.23,4.53,1.11,2.32,2.15,4.51,3.38,6.55a44.54,44.54,0,0,0,7.66,10.09,10.17,10.17,0,0,0,3.38,2.23,3.8,3.8,0,0,0,3,0,3.24,3.24,0,0,0,1.42-2.14c.63-2.55.34-4.08-1.1-5.84-4.3-5.27-9.42-12.5-10.88-21.71l-3.66-23.09,12.43,19.81a76.58,76.58,0,0,0,13.58,16c3.35,3.06,6.13,4.81,9,5.67,4.2,1.27,5.06-1.18,5.34-2,.87-2.47.76-4.06-2.18-6.39-6.22-4.93-11.66-9.56-15.29-16.43l-.13-.23a7.66,7.66,0,0,1-1-6.34l1.46-5.17,5,2.05c3.9,1.61,8.05,3.16,12.21,2.89,6.86-.46,10.73-2.17,13.38-5.91,2.51-3.54,1.47-14.38-1.65-17.32a4.22,4.22,0,0,0-5.68,1c0,.06.06.14.11.24,1.37,2.8,3.84,9.76-2.87,13.81a11.53,11.53,0,0,1-15.08-3.35,19.62,19.62,0,0,1-3.7-12.2c.08-5,.18-10.37.38-15.63.63-16.44-4-29.82-14-40.9a53.8,53.8,0,0,0-31.45-17.33h-.05a7.41,7.41,0,0,1-2.45-.58H93.14c-1.93.65-3.85,1.15-5.71,1.63a47.59,47.59,0,0,0-7.59,2.42c-18,8.1-28.59,21.3-32.52,40.36C46,88,46.13,94.51,46.25,101.38c0,2.31.08,4.69.06,7.07,0,4.75-.37,9.76-4,14.27a12.49,12.49,0,0,1-9.69,5.07c-3.83.08-7-1.44-8.74-4.2a9.15,9.15,0,0,1-.11-9.17,7,7,0,0,0,.54-1.3l-.08-.08c-2.31-2-3.78-1.76-5-1.24-1.5.63-2.08,1.9-3.07,5.42a10.83,10.83,0,0,1-.47,1.31V127a11.67,11.67,0,0,0,6.28,6.68c5,2.37,12,2.44,17.58.17l.45-.21a8.73,8.73,0,0,1,5-1l6.16.79-2.34,5.75c-2.35,5.78-6.71,9.61-10.55,13l-1.46,1.3a32.9,32.9,0,0,1-2.93,2.27,18.92,18.92,0,0,0-2.44,1.94c-1,1-1.05,3.79.26,5.94.83,1.35,2.27,1.73,4.29,1.14,3.29-1,6.49-2.93,10.07-6.17a65.75,65.75,0,0,0,11.48-13.6l6.85-10.68,1.9,12.54c.74,4.9-.63,8.59-1.73,11.55l-.11.29A73.43,73.43,0,0,1,58.36,172c-.66,1.07.09,4.16,1.59,5.3.85.65,2.14,1.63,4.71-.71,3.85-3.49,6-8.35,7.8-13.08a102.33,102.33,0,0,0,4-13.34ZM24.45,113.27Z"/><g id="CCcFnc.tif"><path class="cls-3" d="M10.87,127.73V117.55a15.82,15.82,0,0,0,.65-1.62c1-3.5,2-7,5.83-8.54s7.07-.46,10,2c2.43,2.07,2.13,4.35.71,7.16-1.86,3.69.36,6.54,4.47,6.44a7.8,7.8,0,0,0,6.08-3.29c2.68-3.33,2.92-7.24,2.95-11.31.07-9.25-.78-18.55,1.11-27.71C46.89,60.11,58.73,45.6,77.88,37c4.65-2.1,9.71-2.77,14.46-4.47h16.17c.48.67,1.23.54,1.9.66A58.86,58.86,0,0,1,144.57,52c11.46,12.61,15.91,27.65,15.27,44.3-.2,5.18-.29,10.35-.38,15.53a15,15,0,0,0,2.77,9.3,6.76,6.76,0,0,0,8.75,2.08c2.53-1.52,2.9-3.83,1-7.62a4.62,4.62,0,0,1-.19-4.28c2.21-4.68,9.54-6.05,13.33-2.49,4.87,4.58,6.16,18.08,2.28,23.56-4.16,5.87-10.32,7.47-17,7.91-5,.33-9.73-1.33-14.36-3.24-.4,1.4.35,2.2.79,3,3.31,6.25,8.65,10.65,14,14.91,4.1,3.24,5.45,6.82,3.73,11.72-1.63,4.63-5.94,6.57-11.23,5-4.2-1.27-7.66-3.81-10.85-6.71a81.8,81.8,0,0,1-14.41-17c1.2,7.57,5.24,13.77,9.86,19.44,2.67,3.28,2.9,6.48,2,10-1.25,5.09-5.78,7.24-10.72,5.46a14.84,14.84,0,0,1-5-3.22,49.52,49.52,0,0,1-8.51-11.12c-2.2-3.63-3.78-7.56-5.76-11.34a64.36,64.36,0,0,0,2.36,17c1.19,3.84-.86,8.63-4.86,10.9a8.5,8.5,0,0,1-10.49-2.34,21.22,21.22,0,0,1-3-5.5c-1.57-4.11-2.14-8.46-3.15-13.3-.95,6.23-1.83,11.83-4.68,16.9-2.58,4.58-6.72,6.29-11,4.47a9.85,9.85,0,0,1-5.47-11.58c1.94-7.39,3.35-14.86,1.31-22.55a106.62,106.62,0,0,1-4.22,14c-2.08,5.54-4.56,10.84-9.06,14.93-3.55,3.22-7.37,3.61-10.82,1-3.3-2.52-4.84-8.25-2.76-11.61A68.91,68.91,0,0,0,60,157c1-2.79,2.17-5.66,1.59-9.47a70.85,70.85,0,0,1-12.29,14.56,30.9,30.9,0,0,1-11.93,7.22c-4.15,1.22-7.76,0-9.71-3.22-2.32-3.79-2.29-9,.39-11.77,1.65-1.69,3.83-2.84,5.6-4.42,4.14-3.71,8.6-7.17,10.78-12.56l.1-.17-.07.2c-1.17-.17-2.11.49-3.11.9C30.86,142.52,14.69,140.36,10.87,127.73Z"/><path class="cls-4" d="M44.43,137.33l.07-.2-.1.17Z"/></g><path class="cls-5" d="M119.06,96.82c-7.44,0-13.2-6-13.21-13.71A13.1,13.1,0,0,1,118.9,69.87c7.31-.08,13.79,5.82,13.42,12.89C131.85,91.52,126.85,96.57,119.06,96.82Z"/><path class="cls-6" d="M119.42,86c-2.57-.54-4.38-2.11-4.12-5.1.23-2.65,1.83-4.27,4.69-4.14,3.15.15,4.45,2,4.32,5S122.37,85.85,119.42,86Z"/><path class="cls-7" d="M67.27,83.25A12.84,12.84,0,0,1,80.32,70.13,13.1,13.1,0,0,1,93.72,83.54,13.6,13.6,0,0,1,80.27,97C72.89,97,67.2,90.92,67.27,83.25Z"/><path class="cls-8" d="M81.4,86.18c-2.86-.08-4.6-1.57-4.78-4.25C76.42,79,77.94,77,81,76.9s4.66,1.63,4.67,4.71C85.66,84.48,84,85.85,81.4,86.18Z"/><circle class="cls-8" cx="99.29" cy="115.82" r="9.76"/></svg>