<svg id="Layer_1" data-name="Layer 1" xmlns="http://www.w3.org/2000/svg" viewBox="0 0 200 200"><defs><style>.cls-1,.cls-8{fill:#0d0e0e;}.cls-1,.cls-2{stroke:#231f20;stroke-miterlimit:10;stroke-width:2px;}.cls-2{fill:#fff;}.cls-3{fill:#f0f0f0;}.cls-4{fill:#231f20;}.cls-5{fill:#3e3e40;}.cls-6{fill:#050505;}.cls-7{fill:#faf9f9;}</style></defs><title>panda</title><path class="cls-1" d="M192,64.48A38.41,38.41,0,0,0,131.48,33a74,74,0,0,0-62.85,0A38.4,38.4,0,1,0,25.34,96.48q-.14,2.22-.16,4.45c0,61.54,40.87,84.18,74.89,84.18S175,162.47,175,100.93q0-2.21-.22-4.41A38.44,38.44,0,0,0,192,64.48Z"/><path class="cls-2" d="M100.07,190.11c-39.76,0-79.89-27.57-79.89-89.18q0-1,0-2A43.4,43.4,0,0,1,69.09,27.38a78.87,78.87,0,0,1,61.93,0,43.41,43.41,0,0,1,66,37.11h0A43.32,43.32,0,0,1,179.9,99q0,.92.06,1.84v.1C180,162.54,139.84,190.11,100.07,190.11ZM46.57,31A33.42,33.42,0,0,0,28.1,92.32l2.42,1.6-.19,2.89c-.09,1.38-.14,2.78-.15,4.15,0,26.27,8,47.53,23.08,61.46,12.18,11.24,29.24,17.69,46.81,17.69s34.63-6.45,46.81-17.69C162,148.5,169.95,127.26,170,101c0-1.35-.1-2.72-.21-4.06L169.52,94,172,92.35a33.41,33.41,0,1,0-37.62-55.21L132,38.8l-2.62-1.22a69,69,0,0,0-58.63,0l-2.62,1.22-2.37-1.67A33.28,33.28,0,0,0,46.57,31Z"/><g id="g4463"><path id="path4444" class="cls-3" d="M153.56,26a38.41,38.41,0,0,1,21.18,70.48q.18,2.2.22,4.41c0,61.54-40.87,84.18-74.89,84.18s-74.89-22.64-74.89-84.18q0-2.23.16-4.45A38.4,38.4,0,1,1,68.63,33.06a74,74,0,0,1,62.85,0,38.43,38.43,0,0,1,22.08-7Z"/><path id="path4446" class="cls-4" d="M155.28,33.43A30.37,30.37,0,0,1,172,89.14,59.2,59.2,0,0,0,137.82,39a30.38,30.38,0,0,1,17.46-5.53Z"/><path id="path4448" class="cls-4" d="M44.58,33.43A30.37,30.37,0,0,0,27.84,89.14,59.2,59.2,0,0,1,62,39a30.38,30.38,0,0,0-17.46-5.53Z"/></g><path class="cls-5" d="M139.22,135.16c-7.82.36-12.5-3.63-15.1-10.1-4.26-10.61-8.4-21.11-15.39-30.62-6-8.17-.82-18.27,9.9-20.2,16.26-2.92,26.56,7.25,36.32,17.25,8.69,8.91,11.88,19.46,7.29,31.52C158.2,133.64,148.61,134.17,139.22,135.16Z"/><path class="cls-5" d="M60.07,135.16c7.82.36,12.5-3.63,15.1-10.1,4.26-10.61,8.4-21.11,15.39-30.62,6-8.17.82-18.27-9.9-20.2C64.41,71.31,54.1,81.49,44.35,91.48c-8.69,8.91-11.88,19.46-7.29,31.52C41.1,133.64,50.68,134.17,60.07,135.16Z"/><path class="cls-6" d="M118.63,140c-2,8.46-9.91,12.61-17,9.14a5.9,5.9,0,0,0-5.39-.27c-4.67,1.74-9.52,1.29-13.46-2.2-2.37-2.1-3.33-4.78-.8-8.91,1.19,6.7,4.64,9.73,10.52,9.24,2.89-.24,5.85-1.08,5.4-4.88-.36-3.06,2.25-7.36-3.62-8.48-4.25-.81-8.17-3.13-8-8.19s4.33-6.85,8.44-8A20.13,20.13,0,0,1,109.75,119c2.81,1.47,4.76,3.47,4.71,6.93,0,3.26-2.2,4.94-4.59,6.47a9.12,9.12,0,0,1-2.71,1.21c-3.34.8-7.28.79-6.29,6.15.51,2.73-1.14,6.25,3.06,7.41,4.63,1.27,8.08-.61,11-4.09C115.83,141.91,116,139.89,118.63,140Z"/><path class="cls-7" d="M45.39,106.65C45.47,98,52,91.45,60.47,91.5c8.88.06,15.63,6.82,15.46,15.48s-7.16,15.68-15.52,15.59C51.89,122.48,45.32,115.51,45.39,106.65Z"/><path class="cls-8" d="M61,112.4c-3.31-.1-5.31-1.81-5.52-4.91-.22-3.34,1.53-5.71,5-5.8s5.38,1.88,5.39,5.44C65.9,110.44,64,112,61,112.4Z"/><path class="cls-7" d="M123.18,106.65c.07-8.67,6.57-15.2,15.07-15.15,8.88.06,15.63,6.82,15.46,15.48s-7.16,15.68-15.52,15.59C129.67,122.48,123.1,115.51,123.18,106.65Z"/><path class="cls-8" d="M138.75,112.4c-3.31-.1-5.31-1.81-5.52-4.91-.22-3.34,1.53-5.71,5-5.8s5.38,1.88,5.39,5.44C143.68,110.44,141.81,112,138.75,112.4Z"/></svg>