<svg id="Layer_1" data-name="Layer 1" xmlns="http://www.w3.org/2000/svg" viewBox="0 0 200 200"><defs><style>.cls-1,.cls-9{fill:#ff812d;}.cls-1,.cls-2{stroke:#231f20;stroke-miterlimit:10;stroke-width:2px;}.cls-2{fill:#fff;}.cls-3{fill:#231f20;}.cls-4{fill:#f0f0f0;}.cls-5{fill:#f9f9f7;}.cls-6{fill:#faf9f9;}.cls-7{fill:#0e0d0f;}.cls-8{fill:#0d0e0e;}</style></defs><title>penguin</title><path class="cls-1" d="M99.29,13.61a88.39,88.39,0,0,0-47.3,163c8.33,6.82,19.9,11.54,36,13a88.71,88.71,0,0,0,25.85-.48,68.45,68.45,0,0,0,19.7-5.7A88.36,88.36,0,0,0,99.29,13.61Z"/><path class="cls-2" d="M99.29,195a93.86,93.86,0,0,1-11.85-.75c-15.79-1.48-28.65-6.15-38.21-13.89a94.09,94.09,0,0,1-8.72-6.32,92.82,92.82,0,1,1,94.93,13.66,73.55,73.55,0,0,1-20.9,6.05A93.67,93.67,0,0,1,99.29,195Zm0-176.73A83.68,83.68,0,0,0,54.52,172.61l.46.33c8.13,6.65,19.37,10.68,33.42,12l.17,0a84.44,84.44,0,0,0,24.48-.45l.1,0a64.13,64.13,0,0,0,18.36-5.29l.19-.08A83.65,83.65,0,0,0,99.29,18.31Z"/><path class="cls-3" d="M187.65,102A88.36,88.36,0,1,0,43.49,170.43C28.28,152.84,20.74,128.36,20.74,105a78.55,78.55,0,0,1,157.1,0c0,23.78-8,48.68-23.81,66.33A88.25,88.25,0,0,0,187.65,102Z"/><path class="cls-4" d="M154,171.29a88.45,88.45,0,0,1-20.52,12.15,68.45,68.45,0,0,1-19.7,5.7,88.71,88.71,0,0,1-25.85.48c-16.07-1.49-27.64-6.22-36-13a88.84,88.84,0,0,1-8.51-6.15"/><path class="cls-4" d="M99.29,190.12a102.11,102.11,0,0,0,14.52-1,87.62,87.62,0,0,0,19.7-5.7C165,168.52,168,131.5,168,102c0-37.9-37.27-78.92-68.74-28.07C73.49,25.31,30.55,64.07,30.55,102c0,25.7,0,57.07,21.44,74.61a87.78,87.78,0,0,0,36,13C91.52,189.94,95.28,190.12,99.29,190.12Z"/><path class="cls-4" d="M133.52,183.44a87.62,87.62,0,0,1-19.7,5.7A68.45,68.45,0,0,0,133.52,183.44Z"/><path class="cls-4" d="M88,189.61a88.71,88.71,0,0,0,25.85-.48,102.11,102.11,0,0,1-14.52,1C95.28,190.12,91.52,189.94,88,189.61Z"/><path class="cls-3" d="M99.29,26.41A78.55,78.55,0,0,0,20.74,105c0,23.41,7.54,47.88,22.75,65.47A88.84,88.84,0,0,0,52,176.58C30.56,159,30.55,127.67,30.55,102c0-37.9,42.93-76.66,68.74-28.07C130.76,23.05,168,64.07,168,102c0,29.53-3,66.55-34.51,81.47A88.45,88.45,0,0,0,154,171.29c15.78-17.65,23.81-42.56,23.81-66.33A78.55,78.55,0,0,0,99.29,26.41Z"/><path class="cls-4" d="M52,176.58c8.33,6.82,19.9,11.54,36,13A87.78,87.78,0,0,1,52,176.58Z"/><path class="cls-5" d="M131.11,109.64c-8.25,0-14.63-6.61-14.65-15.2a14.52,14.52,0,0,1,14.48-14.68c8.11-.09,15.29,6.45,14.88,14.29C145.3,103.75,139.75,109.35,131.11,109.64Z"/><path class="cls-6" d="M53.49,94.53C53.56,86.2,59.8,79.93,68,80c8.53.06,15,6.55,14.85,14.87s-6.88,15.06-14.91,15C59.72,109.72,53.42,103,53.49,94.53Z"/><path class="cls-7" d="M130.73,99.82c-2.85-.6-4.86-2.34-4.57-5.65.26-2.94,2-4.74,5.2-4.59,3.49.17,4.93,2.27,4.8,5.53S134,99.62,130.73,99.82Z"/><path class="cls-8" d="M68.45,100c-3.17-.09-5.1-1.74-5.3-4.72-.21-3.21,1.47-5.48,4.85-5.57s5.17,1.81,5.17,5.22C73.18,98.16,71.38,99.68,68.45,100Z"/><path id="path4240" class="cls-9" d="M99.29,166.65,88.78,146.73,78.26,133.63s9-11.82,21-11.82,21,11.82,21,11.82l-10.52,13.11Z"/></svg>