<svg id="Layer_1" data-name="Layer 1" xmlns="http://www.w3.org/2000/svg" viewBox="0 0 200 200"><defs><style>.cls-1,.cls-10{fill:#0d0e0e;}.cls-1,.cls-2{stroke:#231f20;stroke-linecap:round;stroke-linejoin:round;stroke-width:2px;}.cls-2{fill:#fff;}.cls-3{fill:#e7aaaa;}.cls-4{fill:#f8e8e8;}.cls-5{fill:#de8a8a;}.cls-6{fill:#231f20;}.cls-7{fill:#f9f9f7;}.cls-8{fill:#faf9f9;}.cls-9{fill:#0e0d0f;}</style></defs><title>pig</title><path class="cls-1" d="M189.41,38.18H149a36.13,36.13,0,0,0-20.76,6.58,69.53,69.53,0,0,0-59.08,0,36.13,36.13,0,0,0-20.73-6.59H8l9.81,17a36,36,0,0,0,10.63,49.22q-.14,2.09-.15,4.18A70.4,70.4,0,0,0,98.73,179h0a70.4,70.4,0,0,0,70.4-70.4q0-2.08-.21-4.15a36.05,36.05,0,0,0,10.7-49.28Z"/><path class="cls-2" d="M98.73,183.67a75.18,75.18,0,0,1-75.1-75.1q0-.93,0-1.84A40.68,40.68,0,0,1,12.42,55.17L4,40.53A4.7,4.7,0,0,1,8,33.48H48.44a40.62,40.62,0,0,1,21.16,6,74.14,74.14,0,0,1,58.21,0A40.6,40.6,0,0,1,149,33.48h40.41a4.7,4.7,0,0,1,4.07,7.05L185,55.15a40.74,40.74,0,0,1-11.28,51.6q0,.87.06,1.73s0,.06,0,.1A75.18,75.18,0,0,1,98.73,183.67ZM16.18,42.88l5.74,9.94a4.7,4.7,0,0,1-.09,4.85,31.3,31.3,0,0,0,9.25,42.8,4.7,4.7,0,0,1,2.09,4.22c-.08,1.29-.13,2.61-.14,3.9a65.7,65.7,0,0,0,131.39,0c0-1.27-.09-2.55-.19-3.82a4.7,4.7,0,0,1,2.1-4.3,31.35,31.35,0,0,0,9.31-42.86,4.7,4.7,0,0,1-.09-4.85l5.73-9.92H149A31.26,31.26,0,0,0,131,48.61a4.7,4.7,0,0,1-4.69.42,64.83,64.83,0,0,0-55.11,0,4.7,4.7,0,0,1-4.69-.42,31.29,31.29,0,0,0-18-5.73Z"/><path id="path4165" class="cls-3" d="M8,38.18l9.81,17a36,36,0,0,0,10.63,49.22q-.14,2.09-.15,4.18A70.4,70.4,0,0,0,98.73,179h0a70.4,70.4,0,0,0,70.4-70.4h0q0-2.08-.21-4.15a36.05,36.05,0,0,0,10.7-49.28l9.8-17H149a36.13,36.13,0,0,0-20.76,6.58,69.53,69.53,0,0,0-59.08,0,36.13,36.13,0,0,0-20.73-6.59H8Z"/><path id="path4167" class="cls-4" d="M150.62,45.12a28.54,28.54,0,0,1,15.73,52.37,55.65,55.65,0,0,0-32.14-47.17A28.56,28.56,0,0,1,150.62,45.12Z"/><path id="path4169" class="cls-4" d="M46.56,45.12A28.54,28.54,0,0,0,30.83,97.49,55.65,55.65,0,0,1,63,50.32,28.56,28.56,0,0,0,46.56,45.12Z"/><path id="path4171" class="cls-5" d="M133.81,129.71c0,12-15.71,21.68-35.08,21.68h0c-19.38,0-35.08-9.71-35.08-21.68h0c0-12,15.71-21.68,35.08-21.68h0c19.38,0,35.08,9.71,35.08,21.68Z"/><path id="path4173" class="cls-6" d="M93,129.71a10.79,10.79,0,1,1-10.79-10.79A10.79,10.79,0,0,1,93,129.71Z"/><path id="circle4185" class="cls-6" d="M126,129.71a10.79,10.79,0,0,1-10.79,10.79h0a10.79,10.79,0,0,1-10.79-10.79h0a10.79,10.79,0,0,1,10.79-10.79h0A10.79,10.79,0,0,1,126,129.71Z"/><path class="cls-7" d="M130.49,101.32c-8.23,0-14.61-6.6-14.63-15.17a14.5,14.5,0,0,1,14.45-14.66c8.09-.09,15.27,6.44,14.85,14.27C144.65,95.45,139.12,101,130.49,101.32Z"/><path class="cls-8" d="M53,86.23c.07-8.31,6.3-14.57,14.45-14.52,8.51.06,15,6.54,14.82,14.84s-6.86,15-14.88,14.94C59.23,101.41,52.93,94.73,53,86.23Z"/><path class="cls-9" d="M130.11,91.52c-2.84-.6-4.85-2.34-4.56-5.64.26-2.94,2-4.73,5.19-4.58,3.48.17,4.92,2.26,4.79,5.52S133.38,91.32,130.11,91.52Z"/><path class="cls-10" d="M67.94,91.74C64.77,91.65,62.85,90,62.65,87c-.21-3.2,1.47-5.47,4.84-5.56s5.16,1.8,5.17,5.21C72.66,89.86,70.87,91.38,67.94,91.74Z"/></svg>