<svg id="Layer_1" data-name="Layer 1" xmlns="http://www.w3.org/2000/svg" viewBox="0 0 200 200"><defs><style>.cls-1,.cls-4{fill:#d79b73;}.cls-1,.cls-2{stroke:#231f20;stroke-miterlimit:10;stroke-width:2px;}.cls-2{fill:#fff;}.cls-3{fill:#c36f37;}.cls-5{fill:#f9f9f7;}.cls-6{fill:#faf9f9;}.cls-7{fill:#0e0d0f;}.cls-8{fill:#0d0e0e;}.cls-9{fill:#fbfaf5;}.cls-10{fill:#8e4f44;}.cls-11{fill:#502600;}</style></defs><title>red-panda</title><path class="cls-1" d="M189.44,73.38c0-10.41-.08-37.23-.08-37.23s-27.2-.46-37.6-.46h0a37.69,37.69,0,0,0-21.65,6.87,72.53,72.53,0,0,0-61.63,0,37.69,37.69,0,0,0-21.62-6.88c-10.41,0-36.85.08-36.85.08S9.16,63,9.16,73.38A37.69,37.69,0,0,0,26,104.76q-.14,2.18-.15,4.36c0,17.54,13.47,40.63,32.15,56.2,5.57,12.42,22.67,21.46,42.91,21.46,22.42,0,41-11.09,44.3-25.58,16.23-15.33,27.52-36,27.52-52.08q0-2.16-.22-4.32A37.69,37.69,0,0,0,189.44,73.38Z"/><path class="cls-2" d="M100.92,191.78c-21.3,0-40-9.33-47-23.34-19.53-16.65-33.1-40.9-33.1-59.32q0-.94,0-1.88A42.58,42.58,0,0,1,4.16,73.38C4.16,63,5,36.73,5,35.62l.15-4.83,4.83,0s26.45-.08,36.87-.08a42.46,42.46,0,0,1,22.08,6.2,77.43,77.43,0,0,1,60.71,0,42.45,42.45,0,0,1,22.11-6.19c10.33,0,37.42.46,37.69.46l4.9.08,0,4.9s.08,26.83.08,37.24h0a42.57,42.57,0,0,1-16.76,33.88c0,.59,0,1.17.06,1.76v.1c0,16.82-11,38.17-28,54.72C145,180.12,124.78,191.78,100.92,191.78Zm-86.07-151c-.24,8.29-.69,25.05-.69,32.62a32.61,32.61,0,0,0,14.63,27.22l2.42,1.6L31,105.08c-.09,1.34-.14,2.71-.14,4.06,0,15.65,12.76,37.67,30.35,52.33l.89.74.47,1.06c4.88,10.9,20.65,18.5,38.34,18.5,19.65,0,36.6-9.32,39.42-21.69l.34-1.48,1.1-1c15.5-14.64,25.92-34.08,25.95-48.4,0-1.32-.1-2.66-.2-4l-.23-2.94,2.46-1.63a32.61,32.61,0,0,0,14.68-27.25c0-7.63,0-24.07-.07-32.3-8.32-.13-25-.38-32.62-.38a32.53,32.53,0,0,0-18.78,6l-2.37,1.67L128,47.09a67.53,67.53,0,0,0-57.41,0L68,48.32l-2.37-1.67a32.53,32.53,0,0,0-18.75-6C39.22,40.69,23,40.73,14.86,40.76Z"/><path id="path4234" class="cls-3" d="M151.75,35.69c10.41,0,37.6.46,37.6.46s.08,26.82.08,37.23a37.69,37.69,0,0,1-16.92,31.42q.17,2.16.22,4.32c0,29.09-37,73.43-73.43,73.43s-73.43-44.35-73.43-73.43q0-2.18.15-4.36A37.69,37.69,0,0,1,9.16,73.38c0-10.41.84-37.6.84-37.6s26.44-.08,36.85-.08a37.69,37.69,0,0,1,21.62,6.88,72.53,72.53,0,0,1,61.63,0,37.69,37.69,0,0,1,21.65-6.87Z"/><path id="path4236" class="cls-4" d="M153.43,42.93a29.78,29.78,0,0,1,16.41,54.63,58,58,0,0,0-33.53-49.2A29.79,29.79,0,0,1,153.43,42.93Z"/><path id="path4238" class="cls-4" d="M44.89,42.93A29.78,29.78,0,0,0,28.47,97.56,58,58,0,0,1,62,48.35,29.79,29.79,0,0,0,44.89,42.93Z"/><path class="cls-5" d="M132.44,124.22c-8.59,0-15.24-6.88-15.26-15.83A15.12,15.12,0,0,1,132.26,93.1c8.44-.1,15.92,6.72,15.49,14.88C147.21,118.09,141.44,123.92,132.44,124.22Z"/><path class="cls-6" d="M51.61,108.48c.07-8.67,6.57-15.2,15.07-15.15,8.88.06,15.63,6.82,15.46,15.48S75,124.5,66.62,124.4C58.1,124.31,51.53,117.34,51.61,108.48Z"/><path class="cls-7" d="M132,114c-3-.63-5.06-2.44-4.76-5.88.27-3.06,2.11-4.93,5.42-4.78,3.64.17,5.13,2.36,5,5.76S135.45,113.79,132,114Z"/><path class="cls-8" d="M67.19,114.23c-3.31-.1-5.31-1.81-5.52-4.91-.22-3.34,1.53-5.71,5-5.8s5.38,1.88,5.39,5.44C72.11,112.27,70.24,113.85,67.19,114.23Z"/><ellipse class="cls-9" cx="100.92" cy="156.57" rx="44.82" ry="30.21"/><path class="cls-10" d="M99.14,152.65l3.07.13c0,.74,0,1.49,0,2.23.07,5.09-1.3,11.15,6.11,12.28,6.91,1.05,11.14-2.81,13.67-8.91.53-1.28,1.15-2.52,2-4.42,1.14,10-8.33,18.39-16.88,15.45-4.12-1.42-7.26-2.43-12-.4-9.13,3.89-20.14-4.07-19.44-14.83,1.45,5.59,3.5,8.87,7.36,10.72s7.92,3.95,12,1.92C101.18,163.76,100.79,158.25,99.14,152.65Z"/><path id="path4240" class="cls-11" d="M100.86,159.47l-11-10.25-11-6.75a44.93,44.93,0,0,1,43.8,0l-11,6.75Z"/><path class="cls-4" d="M68.25,87.27C57.79,89.39,85.48,71.93,85.48,71.93l8.06,29.88S78.71,85.15,68.25,87.27Z"/><path class="cls-4" d="M130.9,87.27c10.46,2.12-17.23-15.34-17.23-15.34l-8.06,29.88S120.43,85.15,130.9,87.27Z"/></svg>