<?xml version="1.0" encoding="utf-8"?>
<!-- Generator: Adobe Illustrator 20.1.0, SVG Export Plug-In . SVG Version: 6.00 Build 0)  -->
<svg version="1.1" id="Layer_1" xmlns="http://www.w3.org/2000/svg" xmlns:xlink="http://www.w3.org/1999/xlink" x="0px" y="0px"
	 viewBox="0 0 1792 1792" style="enable-background:new 0 0 1792 1792;" xml:space="preserve">
<path class="ctrl-icon" d="M1639,1056c0,3.3-0.3,5.7-1,7c-42.7,178.7-132,323.5-268,434.5S1074.7,1664,892,1664
	c-97.3,0-191.5-18.3-282.5-55s-172.2-89-243.5-157l-129,129c-12.7,12.7-27.7,19-45,19s-32.3-6.3-45-19s-19-27.7-19-45v-448
	c0-17.3,6.3-32.3,19-45s27.7-19,45-19h448c17.3,0,32.3,6.3,45,19s19,27.7,19,45s-6.3,32.3-19,45l-137,137c47.3,44,101,78,161,102
	s122.3,36,187,36c89.3,0,172.7-21.7,250-65s139.3-103,186-179c7.3-11.3,25-50.3,53-117c5.3-15.3,15.3-23,30-23h192
	c8.7,0,16.2,3.2,22.5,9.5S1639,1047.3,1639,1056z M1664,256v448c0,17.3-6.3,32.3-19,45s-27.7,19-45,19h-448c-17.3,0-32.3-6.3-45-19
	s-19-27.7-19-45s6.3-32.3,19-45l138-138c-98.7-91.3-215-137-349-137c-89.3,0-172.7,21.7-250,65S506.7,552,460,628
	c-7.3,11.3-25,50.3-53,117c-5.3,15.3-15.3,23-30,23H178c-8.7,0-16.2-3.2-22.5-9.5S146,744.7,146,736v-7
	c43.3-178.7,133.3-323.5,270-434.5S712.7,128,896,128c97.3,0,192,18.5,284,55.5s173.7,89.2,245,156.5l130-129
	c12.7-12.7,27.7-19,45-19s32.3,6.3,45,19S1664,238.7,1664,256z"/>
</svg>
